<?xml version="1.0" standalone="no"?>
<!DOCTYPE svg PUBLIC "-//W3C//DTD SVG 1.1//EN" "http://www.w3.org/Graphics/SVG/1.1/DTD/svg11.dtd" >
<svg xmlns="http://www.w3.org/2000/svg">
<metadata></metadata>
<defs>
<font id="myra_4f_capslight" horiz-adv-x="670" >
<font-face units-per-em="1000" ascent="750" descent="-250" />
<missing-glyph horiz-adv-x="300" />
<glyph horiz-adv-x="0" />
<glyph horiz-adv-x="333" />
<glyph unicode=" "  horiz-adv-x="300" />
<glyph unicode="&#x09;" horiz-adv-x="300" />
<glyph unicode="&#xa0;" horiz-adv-x="300" />
<glyph unicode="!" horiz-adv-x="220" d="M130 150h-40l-25 550h90zM107 -20q-22 0 -37 15t-15 37t15 37t37 15t37 -15t15 -37t-15 -37t-37 -15z" />
<glyph unicode="&#x22;" horiz-adv-x="335" d="M245 450h-30l-30 250h90zM120 450h-30l-30 250h90z" />
<glyph unicode="#" horiz-adv-x="640" d="M371 285l38 140h-138l-37 -140h137zM358 0h-63l63 235h-138l-62 -235h-63l63 235h-113v50h126l38 140h-113v50h126l60 225h63l-60 -225h137l60 225h63l-60 -225h110v-50h-124l-37 -140h110v-50h-124z" />
<glyph unicode="$" horiz-adv-x="563" d="M307 -150h-52v126q-133 5 -226 75l32 53q76 -63 194 -68v288q-51 11 -82 22t-63 31t-47 53t-15 81q0 94 58.5 148t148.5 63v128h52v-127q118 -5 199 -64l-32 -52q-69 51 -167 56v-289q38 -8 63.5 -14.5t57.5 -21t50.5 -33t32 -49t13.5 -69.5q0 -92 -61.5 -145.5 t-155.5 -63.5v-128zM307 312v-274q69 9 113 46.5t44 100.5q0 53 -36.5 80t-120.5 47zM255 385v276q-64 -8 -105.5 -46t-41.5 -100q0 -60 38 -87.5t109 -42.5z" />
<glyph unicode="%" horiz-adv-x="657" d="M196 0h-61l326 700h61zM175 720q57 0 93.5 -38t36.5 -112t-36.5 -112t-93.5 -38t-93.5 38t-36.5 112t36.5 112t93.5 38zM175 468q36 0 58 24.5t22 77.5q0 102 -80 102t-80 -102t80 -102zM482 -20q-57 0 -93.5 38t-36.5 112t36.5 112t93.5 38t93.5 -38t36.5 -112 t-36.5 -112t-93.5 -38zM482 28q80 0 80 102t-80 102q-36 0 -58 -24.5t-22 -77.5q0 -102 80 -102z" />
<glyph unicode="&#x26;" horiz-adv-x="708" d="M672 54l17 -58q-54 -16 -89 -16q-71 0 -156 52q-72 -52 -174 -52q-114 0 -167 58.5t-53 148.5q0 137 112 194q-22 68 -22 128q0 55 16.5 101t62 80t116.5 34q89 0 158 -45l-32 -51q-55 36 -125 36q-74 0 -105 -46t-31 -111q0 -107 70 -219.5t167 -182.5q35 35 58 88.5 t29.5 88.5t8.5 68h60q-13 -176 -104 -278q58 -32 109 -32q29 0 74 14zM390 69q-133 104 -205 255q-75 -44 -75 -137q0 -64 38.5 -105.5t122.5 -41.5q67 0 119 29z" />
<glyph unicode="'" horiz-adv-x="210" d="M120 450h-30l-30 250h90z" />
<glyph unicode="(" horiz-adv-x="300" d="M255 4v-58q-210 0 -210 404t210 404v-58q-150 0 -150 -346t150 -346z" />
<glyph unicode=")" horiz-adv-x="300" d="M45 -54v58q150 0 150 346t-150 346v58q210 0 210 -404t-210 -404z" />
<glyph unicode="*" horiz-adv-x="427" d="M336 410l-40 -32l-83 110l-83 -111l-40 33l79 107l-126 42l18 48l125 -40v133h54v-134q84 28 126 41l18 -48l-129 -42z" />
<glyph unicode="+" horiz-adv-x="701" d="M379 74h-58v247h-246v58h246v246h58v-246h247v-58h-247v-247z" />
<glyph unicode="," horiz-adv-x="212" d="M85 -125l-37 32q40 38 58 72q-26 1 -43.5 18.5t-17.5 42.5t18 43.5t43 18.5q26 0 43.5 -18t17.5 -44q0 -90 -82 -165z" />
<glyph unicode="-" horiz-adv-x="401" d="M326 321h-251v58h251v-58z" />
<glyph unicode="." horiz-adv-x="212" d="M106 -20q-25 0 -43 18t-18 43t18 43t43 18q26 0 43.5 -18t17.5 -43t-18 -43t-43 -18z" />
<glyph unicode="/" horiz-adv-x="387" d="M61 0h-61l326 700h61z" />
<glyph unicode="0" horiz-adv-x="610" d="M305 724q117 0 188.5 -95t71.5 -279t-71.5 -279t-188.5 -95t-188.5 95t-71.5 279t71.5 279t188.5 95zM305 34q90 0 145 80t55 236t-55 236t-145 80t-145 -80t-55 -236t55 -236t145 -80z" />
<glyph unicode="1" horiz-adv-x="373" d="M268 0h-60v450l4 161l-179 -93l-28 50l252 130l1 2h10v-700z" />
<glyph unicode="2" horiz-adv-x="566" d="M521 0h-476v38q182 143 231 187q133 120 158 224q7 30 7 60q0 82 -46.5 119.5t-120.5 37.5q-83 0 -126 -53t-43 -183h-60q0 146 63.5 220t175.5 74q110 0 163.5 -64t53.5 -151q0 -120 -101.5 -239t-274.5 -222l126 10h270v-58z" />
<glyph unicode="3" horiz-adv-x="544" d="M289 301h-50v58h53q62 0 96.5 38t34.5 107q0 80 -43.5 121t-108.5 41q-77 0 -121.5 -59.5t-44.5 -176.5h-60q0 145 61 219.5t163 74.5q95 0 154.5 -57.5t59.5 -160.5q0 -138 -110 -174q126 -28 126 -155q0 -93 -62 -147t-158 -54q-132 0 -232 95l41 43q82 -80 190 -80 q71 0 116 38t45 107q0 122 -150 122z" />
<glyph unicode="4" horiz-adv-x="582" d="M456 0h-60v180h-361v38l188 482h62l-179 -462h290v244l60 12v-256h91v-58h-91v-180z" />
<glyph unicode="5" horiz-adv-x="544" d="M47 51l35 47q35 -29 84.5 -46.5t97.5 -17.5q79 0 127 49t48 135q0 81 -43 123t-117 42q-82 0 -147 -60v-1h-1l-58 13l23 365h366v-58h-310l-16 -249q66 48 146 48q99 0 158 -57t59 -165q0 -114 -65 -178.5t-168 -64.5q-60 0 -118.5 21t-100.5 54z" />
<glyph unicode="6" horiz-adv-x="578" d="M509 677l-29 -51q-76 38 -167 38q-191 0 -207 -275q95 51 194 51q104 0 168.5 -59t64.5 -172q0 -109 -61.5 -171t-171.5 -62q-255 0 -255 362q0 197 71 291.5t196 94.5q111 0 197 -47zM105 318q6 -282 196 -282q81 0 126.5 46t45.5 127q0 84 -47.5 127.5t-127.5 43.5 q-102 0 -193 -62z" />
<glyph unicode="7" horiz-adv-x="472" d="M166 0h-64l280 642h-363v58h434v-38z" />
<glyph unicode="8" horiz-adv-x="584" d="M412 353q127 -48 127 -173q0 -94 -70 -149t-177 -55t-177 55t-70 149q0 125 127 173q-111 53 -111 169q0 90 64.5 146t166.5 56q101 0 166 -55t65 -147q0 -116 -111 -169zM479 179q0 67 -53.5 105.5t-135.5 37.5q-85 -1 -135 -40t-50 -104q0 -67 53 -105t132 -39 q78 -1 133.5 37.5t55.5 107.5zM463 524q0 65 -49 103.5t-122 38.5t-122 -38.5t-49 -104.5t49 -103.5t122 -37.5t122 38.5t49 103.5z" />
<glyph unicode="9" horiz-adv-x="578" d="M69 23l29 51q76 -38 167 -38q190 0 206 274q-92 -50 -193 -50q-104 0 -168.5 59t-64.5 172q0 109 61.5 171t171.5 62q255 0 255 -362q0 -197 -71 -291.5t-196 -94.5q-111 0 -197 47zM473 381q-6 283 -196 283q-81 0 -126.5 -46t-45.5 -127q0 -84 47.5 -127.5t127.5 -43.5 q103 0 193 61z" />
<glyph unicode=":" horiz-adv-x="272" d="M106 -20q-25 0 -43 18t-18 43t18 43t43 18q26 0 43.5 -18t17.5 -43t-18 -43t-43 -18zM106 280q-25 0 -43 18t-18 43t18 43t43 18q26 0 43.5 -18t17.5 -43t-18 -43t-43 -18z" />
<glyph unicode=";" horiz-adv-x="272" d="M85 -125l-37 32q40 38 58 72q-26 1 -43.5 18.5t-17.5 42.5t18 43.5t43 18.5q26 0 43.5 -18t17.5 -44q0 -90 -82 -165zM106 280q-25 0 -43 18t-18 43t18 43t43 18q26 0 43.5 -18t17.5 -43t-18 -43t-43 -18z" />
<glyph unicode="&#x3c;" horiz-adv-x="598" d="M523 69l-473 261v40l473 262v-66l-281 -156l-128 -60l128 -60l281 -155v-66z" />
<glyph unicode="=" horiz-adv-x="601" d="M526 232h-451v58h451v-58zM526 410h-451v58h451v-58z" />
<glyph unicode="&#x3e;" horiz-adv-x="598" d="M548 330l-473 -261v66l281 155l128 60l-128 60l-281 156v66l473 -262v-40z" />
<glyph unicode="?" horiz-adv-x="553" d="M294 150h-40l-7 226l55 11q133 27 133 138q0 71 -51 105t-127 34q-109 0 -183 -57l-32 52q87 65 215 65q101 0 169.5 -50.5t68.5 -152.5q0 -47 -15.5 -82t-45.5 -56.5t-61 -34t-75 -22.5zM271 -20q-22 0 -37 15t-15 37t15 37t37 15t37 -15t15 -37t-15 -37t-37 -15z" />
<glyph unicode="@" horiz-adv-x="750" d="M651 87l26 -54q-118 -57 -268 -57q-182 0 -273 91.5t-91 285.5q0 190 86.5 280.5t257.5 90.5q165 0 240.5 -80.5t75.5 -235.5q0 -126 -43.5 -185t-109.5 -59q-53 0 -89 40q-43 -40 -103 -40q-68 0 -105.5 46.5t-37.5 138.5t37.5 138.5t105.5 46.5q62 0 106 -44l6 35h48 v-293q16 -8 33 -10t33.5 11t29.5 33.5t21 58t8 85.5q0 126 -60 191t-196 65q-143 0 -213.5 -75.5t-70.5 -235.5q0 -166 75.5 -243.5t229.5 -77.5q139 0 241 53zM460 271v156q-42 49 -97 49q-86 0 -86 -127t86 -127q56 0 97 49z" />
<glyph unicode="A" horiz-adv-x="775" d="M775 0h-64l-65 161h-356l-65 -161h-64l263 642h-119q-226 0 -226 -136q0 -53 38 -88t110 -35v-58q-102 0 -155 51t-53 130q0 194 286 194h183zM622 219l-113 280l-41 118l-41 -118l-114 -280h309z" />
<glyph unicode="B" horiz-adv-x="804" d="M529 0h-225v642q-225 0 -225 -136q0 -53 38 -88t110 -35v-58q-102 0 -155 51t-53 130q0 193 285 194h205q101 0 165.5 -45.5t64.5 -138.5q0 -117 -106 -162q126 -42 126 -170q0 -93 -64.5 -138.5t-165.5 -45.5zM364 60h165q76 0 123 30t47 94q0 66 -48.5 101.5 t-121.5 35.5h-165v-261zM364 379h145q73 0 121.5 35.5t48.5 101.5q0 64 -47 94t-123 30h-145v-261z" />
<glyph unicode="C" horiz-adv-x="600" d="M520 89l36 -48q-92 -65 -209 -65q-138 0 -220 95t-82 284q0 181 74.5 275t195.5 94q108 0 177 -75t69 -219h-60q0 115 -52 175.5t-134 60.5q-94 0 -152 -79t-58 -231q0 -161 66 -241.5t177 -80.5q95 0 172 55z" />
<glyph unicode="D" horiz-adv-x="849" d="M486 0h-181v642q-226 0 -226 -136q0 -53 38 -88t110 -35v-58q-102 0 -155 51t-53 130q0 194 286 194h181q143 0 230.5 -88.5t87.5 -261.5t-87.5 -261.5t-230.5 -88.5zM365 58h121q116 0 187 74t71 218t-71 218t-187 74h-121v-584z" />
<glyph unicode="E" horiz-adv-x="771" d="M720 0h-415v642q-226 0 -226 -136q0 -53 38 -88t110 -35v-58q-102 0 -155 51t-53 130q0 194 286 194h415v-58h-355v-263h305v-58h-305v-263h355v-58z" />
<glyph unicode="F" horiz-adv-x="754" d="M365 0h-60v642q-226 0 -226 -136q0 -53 38 -88t110 -35v-58q-102 0 -155 51t-53 130q0 194 286 194h415v-58h-355v-263h305v-58h-305v-321z" />
<glyph unicode="G" horiz-adv-x="640" d="M571 -1h-27l-15 30q-84 -53 -184 -53q-136 0 -218 95.5t-82 282.5q0 183 80 276.5t217 93.5q118 0 216 -65l-33 -51q-70 56 -185 56q-110 0 -167.5 -72.5t-57.5 -240.5q0 -172 59 -243.5t169 -71.5q97 0 158 46v1v238h-168v59h238v-381z" />
<glyph unicode="H" horiz-adv-x="871" d="M796 0h-60v321h-371v-321h-60v642q-226 0 -226 -136q0 -53 38 -88t110 -35v-58q-102 0 -155 51t-53 130q0 194 286 194h60v-321h371v321h60v-700z" />
<glyph unicode="I" horiz-adv-x="440" d="M365 0h-60v642q-226 0 -226 -136q0 -53 38 -88t110 -35v-58q-102 0 -155 51t-53 130q0 194 286 194h60v-700z" />
<glyph unicode="J" horiz-adv-x="433" d="M304 220v422q-225 0 -225 -136q0 -53 38 -88t110 -35v-58q-102 0 -155 51t-53 130q0 193 285 194h60v-480q0 -115 -51.5 -174.5t-137.5 -59.5q-57 0 -125 26l20 57q58 -23 105 -23q60 0 94.5 44t34.5 130z" />
<glyph unicode="K" horiz-adv-x="791" d="M773 0h-81l-327 333v-333h-60v642q-226 0 -226 -136q0 -53 38 -88t110 -35v-58q-102 0 -155 51t-53 130q0 194 286 194h60v-334l327 334h81l-343 -350z" />
<glyph unicode="L" horiz-adv-x="687" d="M670 0h-365v642q-226 0 -226 -136q0 -53 38 -88t110 -35v-58q-102 0 -155 51t-53 130q0 194 286 194h60v-642h305v-58z" />
<glyph unicode="M" horiz-adv-x="1020" d="M945 0h-60v559l-240 -379h-40l-240 379v-559h-60v642q-226 0 -226 -136q0 -53 38 -88t110 -35v-58q-102 0 -155 51t-53 130q0 194 286 194h40l280 -445l280 445h40v-700z" />
<glyph unicode="N" horiz-adv-x="871" d="M796 0h-40l-391 568v-568h-60v642q-226 0 -226 -136q0 -53 38 -88t110 -35v-58q-102 0 -155 51t-53 130q0 194 286 194h40l391 -568v568h60v-700z" />
<glyph unicode="O" d="M335 724q131 0 210.5 -94.5t79.5 -279.5t-79.5 -279.5t-210.5 -94.5t-210.5 94.5t-79.5 279.5t79.5 279.5t210.5 94.5zM335 34q104 0 167 80t63 236t-63 236t-167 80t-167 -80t-63 -236t63 -236t167 -80z" />
<glyph unicode="P" horiz-adv-x="782" d="M365 0h-60v642q-226 0 -226 -136q0 -53 38 -88t110 -35v-58q-102 0 -155 51t-53 130q0 194 286 194h225q100 0 165 -58.5t65 -172.5t-64 -171.5t-166 -57.5h-165v-240zM365 298h165q75 0 122.5 43t47.5 128t-48 129t-122 44h-165v-344z" />
<glyph unicode="Q" horiz-adv-x="671" d="M626 -103l-28 -53q-100 53 -150 154q-51 -22 -113 -22q-131 0 -210.5 94.5t-79.5 279.5t79.5 279.5t210.5 94.5t210.5 -94.5t79.5 -279.5q0 -231 -127 -324q45 -85 128 -129zM335 34q104 0 167 80t63 236t-63 236t-167 80t-167 -80t-63 -236t63 -236t167 -80z" />
<glyph unicode="R" horiz-adv-x="793" d="M766 0h-68l-157 240h-11h-165v-240h-60v642q-226 0 -226 -136q0 -53 38 -88t110 -35v-58q-102 0 -155 51t-53 130q0 194 286 194h225q100 0 165 -58.5t65 -172.5q0 -91 -42 -146.5t-113 -73.5zM365 298h165q75 0 122.5 43t47.5 128t-48 129t-122 44h-165v-344z" />
<glyph unicode="S" horiz-adv-x="563" d="M29 51l32 53q38 -31 95 -49.5t114 -18.5q82 0 138 39t56 110q0 58 -42.5 85t-147.5 50q-47 10 -71.5 17t-59.5 22t-52 33t-30 48.5t-13 70.5q0 103 69.5 158t171.5 55q57 0 116 -17t101 -48l-32 -52q-75 57 -184 57q-76 0 -129 -39t-53 -110q0 -34 12.5 -58t39 -38.5 t50.5 -22t64 -15.5q112 -23 152 -41q98 -45 98 -153q0 -102 -73.5 -156.5t-180.5 -54.5q-65 0 -130 20.5t-111 54.5z" />
<glyph unicode="T" horiz-adv-x="707" d="M478 0h-60v642h-113q-226 0 -226 -136q0 -53 38 -88t110 -35v-58q-102 0 -155 51t-53 130q0 194 286 194h383v-58h-210v-642z" />
<glyph unicode="U" horiz-adv-x="878" d="M749 233v467h60v-467q0 -122 -73.5 -189.5t-178.5 -67.5t-178.5 67.5t-73.5 189.5v409q-226 0 -226 -136q0 -53 38 -88t110 -35v-58q-102 0 -155 51t-53 130q0 194 286 194h60v-467q0 -95 56 -147t136 -52t136 52t56 147z" />
<glyph unicode="V" horiz-adv-x="853" d="M566 0h-40l-263 641q-184 -12 -184 -135q0 -53 38 -88t110 -35v-58q-102 0 -155 51t-53 130q0 88 68 141t198 53h18l202 -499l41 -118l41 118l202 499h64z" />
<glyph unicode="W" horiz-adv-x="1018" d="M839 0h-40l-122 418l-41 163l-41 -163l-122 -418h-40l-174 640q-180 -12 -180 -134q0 -53 38 -88t110 -35v-58q-102 0 -155 51t-53 130q0 88 68 141t198 53h20l119 -438l31 -143l33 143l128 438h40l128 -438l33 -143l31 143l109 438h61z" />
<glyph unicode="X" horiz-adv-x="764" d="M755 0h-70l-207 312l-206 -312h-70l241 365l-182 275q-182 -12 -182 -134q0 -53 38 -88t110 -35v-58q-102 0 -155 51t-53 130q0 88 68 141t198 53h7l186 -282l187 282h70l-222 -335z" />
<glyph unicode="Y" horiz-adv-x="788" d="M537 0h-60v244l-218 396q-180 -12 -180 -134q0 -53 38 -88t110 -35v-58q-102 0 -155 51t-53 130q0 88 68 141t198 53h7l215 -390l215 390h66l-251 -456v-244z" />
<glyph unicode="Z" horiz-adv-x="658" d="M353 0h-329v38l354 604h-354v58h434v-38l-354 -604h249q226 0 226 136q0 53 -38 88t-110 35v58q102 0 155 -51t53 -130q0 -194 -286 -194z" />
<glyph unicode="[" horiz-adv-x="341" d="M290 -55h-215v810h215v-58h-155v-694h155v-58z" />
<glyph unicode="\" horiz-adv-x="387" d="M387 0h-61l-326 700h61z" />
<glyph unicode="]" horiz-adv-x="341" d="M266 -55h-215v58h155v694h-155v58h215v-810z" />
<glyph unicode="_" horiz-adv-x="550" d="M551 -158h-551v58h551v-58z" />
<glyph unicode="`" horiz-adv-x="391" d="M299 748l-198 61l38 51l170 -92z" />
<glyph unicode="a" horiz-adv-x="614" d="M614 0h-64l-65 161h-356l-65 -161h-64l287 700h40zM461 219l-113 280l-41 118l-41 -118l-114 -280h309z" />
<glyph unicode="b" horiz-adv-x="575" d="M300 0h-225v700h205q101 0 165.5 -45.5t64.5 -138.5q0 -117 -106 -162q126 -42 126 -170q0 -93 -64.5 -138.5t-165.5 -45.5zM135 60h165q76 0 123 30t47 94q0 66 -48.5 101.5t-121.5 35.5h-165v-261zM135 379h145q73 0 121.5 35.5t48.5 101.5q0 64 -47 94t-123 30h-145 v-261z" />
<glyph unicode="c" horiz-adv-x="600" d="M520 89l36 -48q-92 -65 -209 -65q-138 0 -220 95t-82 284q0 181 74.5 275t195.5 94q108 0 177 -75t69 -219h-60q0 115 -52 175.5t-134 60.5q-94 0 -152 -79t-58 -231q0 -161 66 -241.5t177 -80.5q95 0 172 55z" />
<glyph unicode="d" horiz-adv-x="619" d="M256 0h-181v700h181q143 0 230.5 -88.5t87.5 -261.5t-87.5 -261.5t-230.5 -88.5zM135 58h121q116 0 187 74t71 218t-71 218t-187 74h-121v-584z" />
<glyph unicode="e" horiz-adv-x="541" d="M490 0h-415v700h415v-58h-355v-263h305v-58h-305v-263h355v-58z" />
<glyph unicode="f" horiz-adv-x="524" d="M135 0h-60v700h415v-58h-355v-263h305v-58h-305v-321z" />
<glyph unicode="g" horiz-adv-x="640" d="M571 -1h-27l-15 30q-84 -53 -184 -53q-136 0 -218 95.5t-82 282.5q0 183 80 276.5t217 93.5q118 0 216 -65l-33 -51q-70 56 -185 56q-110 0 -167.5 -72.5t-57.5 -240.5q0 -172 59 -243.5t169 -71.5q97 0 158 46v1v238h-168v59h238v-381z" />
<glyph unicode="h" horiz-adv-x="641" d="M566 0h-60v321h-371v-321h-60v700h60v-321h371v321h60v-700z" />
<glyph unicode="i" horiz-adv-x="210" d="M135 0h-60v700h60v-700z" />
<glyph unicode="j" horiz-adv-x="388" d="M259 220v480h60v-480q0 -115 -51.5 -174.5t-137.5 -59.5q-57 0 -125 26l20 57q58 -23 105 -23q60 0 94.5 44t34.5 130z" />
<glyph unicode="k" horiz-adv-x="561" d="M543 0h-81l-327 333v-333h-60v700h60v-334l327 334h81l-343 -350z" />
<glyph unicode="l" horiz-adv-x="457" d="M440 0h-365v700h60v-642h305v-58z" />
<glyph unicode="m" horiz-adv-x="790" d="M715 0h-60v559l-240 -379h-40l-240 379v-559h-60v700h40l280 -445l280 445h40v-700z" />
<glyph unicode="n" horiz-adv-x="641" d="M566 0h-40l-391 568v-568h-60v700h40l391 -568v568h60v-700z" />
<glyph unicode="o" d="M335 724q131 0 210.5 -94.5t79.5 -279.5t-79.5 -279.5t-210.5 -94.5t-210.5 94.5t-79.5 279.5t79.5 279.5t210.5 94.5zM335 34q104 0 167 80t63 236t-63 236t-167 80t-167 -80t-63 -236t63 -236t167 -80z" />
<glyph unicode="p" horiz-adv-x="552" d="M135 0h-60v700h225q100 0 165 -58.5t65 -172.5t-64 -171.5t-166 -57.5h-165v-240zM135 298h165q75 0 122.5 43t47.5 128t-48 129t-122 44h-165v-344z" />
<glyph unicode="q" horiz-adv-x="671" d="M626 -103l-28 -53q-100 53 -150 154q-51 -22 -113 -22q-131 0 -210.5 94.5t-79.5 279.5t79.5 279.5t210.5 94.5t210.5 -94.5t79.5 -279.5q0 -231 -127 -324q45 -85 128 -129zM335 34q104 0 167 80t63 236t-63 236t-167 80t-167 -80t-63 -236t63 -236t167 -80z" />
<glyph unicode="r" horiz-adv-x="564" d="M537 0h-68l-157 240h-11h-165v-240h-60v700h225q100 0 165 -58.5t65 -172.5q0 -91 -42 -146.5t-113 -73.5zM136 298h165q75 0 122.5 43t47.5 128t-48 129t-122 44h-165v-344z" />
<glyph unicode="s" horiz-adv-x="563" d="M29 51l32 53q38 -31 95 -49.5t114 -18.5q83 0 138.5 39t55.5 112q0 25 -8 43.5t-21 31.5t-39.5 23.5t-51.5 17.5t-70 17q-47 10 -71.5 16.5t-59.5 21.5t-52 33t-30 48.5t-13 70.5q0 104 70 159t171 55q55 0 113 -17t99 -48l-32 -52q-74 57 -179 57q-77 0 -129.5 -39 t-52.5 -111q0 -34 12 -57.5t37.5 -38t50.5 -22t66 -15.5q114 -22 157 -43q92 -47 93 -151q0 -102 -73.5 -156.5t-180.5 -54.5q-65 0 -130 20.5t-111 54.5z" />
<glyph unicode="t" horiz-adv-x="518" d="M289 0h-60v642h-210v58h480v-58h-210v-642z" />
<glyph unicode="u" horiz-adv-x="642" d="M513 233v467h60v-467q0 -122 -73.5 -189.5t-178.5 -67.5t-178.5 67.5t-73.5 189.5v467h60v-467q0 -95 56 -147t136 -52t136 52t56 147z" />
<glyph unicode="v" horiz-adv-x="614" d="M327 0h-40l-287 700h64l202 -499l41 -118l41 118l202 499h64z" />
<glyph unicode="w" horiz-adv-x="774" d="M595 0h-40l-122 418l-41 163l-41 -163l-122 -418h-40l-189 700h61l119 -438l31 -143l33 143l128 438h40l128 -438l33 -143l31 143l109 438h61z" />
<glyph unicode="x" horiz-adv-x="571" d="M562 0h-70l-207 312l-206 -312h-70l241 365l-221 335h70l186 -282l187 282h70l-222 -335z" />
<glyph unicode="y" horiz-adv-x="562" d="M311 0h-60v244l-251 456h66l215 -390l215 390h66l-251 -456v-244z" />
<glyph unicode="z" horiz-adv-x="495" d="M458 0h-434v38l354 604h-354v58h434v-38l-354 -604h354v-58z" />
<glyph unicode="{" horiz-adv-x="401" d="M326 3v-58q-43 0 -73 14.5t-46.5 35t-26 58t-12 66t-4.5 77.5q-4 127 -81 127h-33v54h33q77 0 81 127q2 49 4.5 77.5t12 66t26 58t46.5 35t73 14.5v-58q-28 0 -47 -10.5t-29 -20.5t-16 -41t-7 -43.5t-2 -56.5q-1 -13 -1 -20q-1 -23 -2 -35.5t-5 -36t-11 -37.5t-21 -27.5 t-33 -18.5q24 -7 39 -23.5t21.5 -43t8.5 -43t3 -45.5q4 -102 12 -130q19 -62 90 -62z" />
<glyph unicode="|" horiz-adv-x="190" d="M125 -150h-60v1000h60v-1000z" />
<glyph unicode="}" horiz-adv-x="401" d="M75 -55v58q45 0 68 27t27 54t6 96q1 10 1 15q1 29 3 45.5t8.5 43t21.5 43t38 23.5q-23 6 -38 22.5t-21.5 43t-8.5 43.5t-3 46q-4 105 -14 135q-20 57 -88 57v58q43 0 73 -14.5t46.5 -35t26 -58t12 -66t4.5 -77.5q4 -127 81 -127h33v-54h-33q-77 0 -81 -127 q-2 -49 -4.5 -77.5t-12 -66t-26 -58t-46.5 -35t-73 -14.5z" />
<glyph unicode="&#xa1;" horiz-adv-x="220" d="M155 0h-90l25 550h40zM159 668q0 -22 -15 -37t-37 -15t-37 15t-15 37t15 37t37 15t37 -15t15 -37z" />
<glyph unicode="&#xa5;" horiz-adv-x="562" d="M506 94h-195v-94h-60v94h-196v50h196v100h-196v50h168l-223 406h66l215 -390l215 390h66l-224 -406h168v-50h-195v-100h195v-50z" />
<glyph unicode="&#xa8;" horiz-adv-x="374" d="M115 740q-18 0 -29 11.5t-11 28.5q0 16 11.5 28t28.5 12q16 0 28 -12t12 -28q0 -17 -11.5 -28.5t-28.5 -11.5zM259 740q-17 0 -28.5 11.5t-11.5 28.5q0 16 11.5 28t28.5 12q18 0 29 -11.5t11 -28.5t-11.5 -28.5t-28.5 -11.5z" />
<glyph unicode="&#xa9;" horiz-adv-x="810" d="M533 221l36 -47q-60 -48 -139 -48q-86 0 -137.5 57t-51.5 170q0 109 47 165t125 56q68 0 112 -45t44 -131h-63q0 59 -25.5 88t-67.5 29q-50 0 -79.5 -40t-29.5 -121q0 -169 126 -169q60 0 103 36zM405 -20q-154 0 -257 107.5t-103 262.5t103 262.5t257 107.5t257 -107.5 t103 -262.5t-103 -262.5t-257 -107.5zM405 662q-135 0 -217.5 -89.5t-82.5 -222.5t82.5 -222.5t217.5 -89.5t217.5 89.5t82.5 222.5t-82.5 222.5t-217.5 89.5z" />
<glyph unicode="&#xab;" horiz-adv-x="492" d="M305 98h-71l-189 252l189 252h71l-189 -252zM447 126h-71l-169 224l169 224h71l-168 -224z" />
<glyph unicode="&#xad;" horiz-adv-x="401" d="M326 321h-251v58h251v-58z" />
<glyph unicode="&#xae;" horiz-adv-x="810" d="M405 -20q-154 0 -257 107.5t-103 262.5t103 262.5t257 107.5t257 -107.5t103 -262.5t-103 -262.5t-257 -107.5zM405 662q-135 0 -217.5 -89.5t-82.5 -222.5t82.5 -222.5t217.5 -89.5t217.5 89.5t82.5 222.5t-82.5 222.5t-217.5 89.5zM564 140h-72l-90 144h-73v-144h-63 v420h153q60 0 99 -35.5t39 -103.5q0 -104 -89 -130zM329 343h90q75 0 75 78q0 80 -75 80h-90v-158z" />
<glyph unicode="&#xaf;" horiz-adv-x="406" d="M366 755h-326v50h326v-50z" />
<glyph unicode="&#xb0;" horiz-adv-x="380" d="M190 420q-62 0 -106 44t-44 106t44 106t106 44t106 -44t44 -106t-44 -106t-106 -44zM190 468q41 0 70.5 30t29.5 72t-29.5 72t-70.5 30t-70.5 -30t-29.5 -72t29.5 -72t70.5 -30z" />
<glyph unicode="&#xb4;" horiz-adv-x="391" d="M309 809l-198 -61l-10 20l170 92z" />
<glyph unicode="&#xb8;" horiz-adv-x="286" d="M75 -170l19 36q1 -1 8 -5t13 -6.5t14 -2.5q13 0 21 6.5t8 17.5q0 5 -2 9.5t-7.5 8t-9 5.5t-12 5.5t-11.5 4.5l-11 5l29 87h32l-15 -53l10 -4q50 -20 50 -69q0 -33 -22 -51t-56 -18q-28 0 -58 24z" />
<glyph unicode="&#xbb;" horiz-adv-x="492" d="M258 98h-71l189 252l-189 252h71l189 -252zM116 126h-71l168 224l-168 224h71l169 -224z" />
<glyph unicode="&#xbf;" horiz-adv-x="553" d="M463 97l32 -52q-87 -65 -215 -65q-101 0 -169.5 50.5t-68.5 152.5q0 47 15.5 82t45.5 56.5t61 34t75 22.5l4 176h40l7 -226l-55 -11q-133 -27 -133 -138q0 -71 51 -105t127 -34q109 0 183 57zM318 672q0 -22 -15 -37t-37 -15t-37 15t-15 37t15 37t37 15t37 -15t15 -37z " />
<glyph unicode="&#xc0;" horiz-adv-x="775" d="M775 0h-64l-65 161h-356l-65 -161h-64l263 642h-119q-226 0 -226 -136q0 -53 38 -88t110 -35v-58q-102 0 -155 51t-53 130q0 194 286 194h183zM622 219l-113 280l-41 118l-41 -118l-114 -280h309zM481 748l-198 61l38 51l170 -92z" />
<glyph unicode="&#xc1;" horiz-adv-x="775" d="M775 0h-64l-65 161h-356l-65 -161h-64l263 642h-119q-226 0 -226 -136q0 -53 38 -88t110 -35v-58q-102 0 -155 51t-53 130q0 194 286 194h183zM622 219l-113 280l-41 118l-41 -118l-114 -280h309zM562 809l-198 -61l-10 20l170 92z" />
<glyph unicode="&#xc2;" horiz-adv-x="775" d="M775 0h-64l-65 161h-356l-65 -161h-64l263 642h-119q-226 0 -226 -136q0 -53 38 -88t110 -35v-58q-102 0 -155 51t-53 130q0 194 286 194h183zM622 219l-113 280l-41 118l-41 -118l-114 -280h309zM543 750h-38l-69 55l-69 -55h-36l80 98h52z" />
<glyph unicode="&#xc3;" horiz-adv-x="775" d="M775 0h-64l-65 161h-356l-65 -161h-64l263 642h-119q-226 0 -226 -136q0 -53 38 -88t110 -35v-58q-102 0 -155 51t-53 130q0 194 286 194h183zM622 219l-113 280l-41 118l-41 -118l-114 -280h309zM559 826l27 -7q-11 -42 -26.5 -58.5t-40.5 -16.5q-15 0 -52 16.5 t-50 16.5q-14 0 -22.5 -8.5t-17.5 -31.5l-27 7q11 42 26.5 58.5t40.5 16.5q15 0 52 -16.5t50 -16.5q14 0 22.5 8.5t17.5 31.5z" />
<glyph unicode="&#xc4;" horiz-adv-x="775" d="M775 0h-64l-65 161h-356l-65 -161h-64l263 642h-119q-226 0 -226 -136q0 -53 38 -88t110 -35v-58q-102 0 -155 51t-53 130q0 194 286 194h183zM622 219l-113 280l-41 118l-41 -118l-114 -280h309zM376 740q-18 0 -29 11.5t-11 28.5q0 16 11.5 28t28.5 12q16 0 28 -12 t12 -28q0 -17 -11.5 -28.5t-28.5 -11.5zM520 740q-17 0 -28.5 11.5t-11.5 28.5q0 16 11.5 28t28.5 12q18 0 29 -11.5t11 -28.5t-11.5 -28.5t-28.5 -11.5z" />
<glyph unicode="&#xc5;" horiz-adv-x="775" d="M775 0h-64l-65 161h-356l-65 -161h-64l263 642h-119q-226 0 -226 -136q0 -53 38 -88t110 -35v-58q-102 0 -155 51t-53 130q0 194 286 194h117q-32 22 -32 65q0 34 22.5 56.5t56.5 22.5t56.5 -22.5t22.5 -56.5q0 -28 -15.5 -48.5t-40.5 -27.5zM622 219l-113 280l-41 118 l-41 -118l-114 -280h309zM509 765q0 17 -11.5 28.5t-28.5 11.5t-28.5 -11.5t-11.5 -28.5t11.5 -28.5t28.5 -11.5t28.5 11.5t11.5 28.5z" />
<glyph unicode="&#xc6;" horiz-adv-x="965" d="M914 0h-355v161h-269l-65 -161h-64l263 642h-119q-226 0 -226 -136q0 -53 38 -88t110 -35v-58q-102 0 -155 51t-53 130q0 194 286 194h609v-58h-295v-263h245v-58h-245v-263h295v-58zM559 219v423h-75l-171 -423h246z" />
<glyph unicode="&#xc7;" horiz-adv-x="600" d="M520 89l36 -48q-92 -65 -209 -65q-5 0 -13.5 0.5t-12.5 0.5l-8 -29l10 -4q50 -20 50 -69q0 -33 -22 -51t-56 -18q-28 0 -58 24l19 36q1 -1 8 -5t13 -6.5t14 -2.5q13 0 21 6.5t8 17.5q0 5 -2 9.5t-7.5 8t-9 5.5t-12 5.5t-11.5 4.5l-11 5l22 67q-113 18 -178.5 112.5 t-65.5 262.5q0 181 75 274.5t197 93.5q107 0 175.5 -75.5t68.5 -218.5h-60q0 115 -52 175.5t-132 60.5q-96 0 -154 -79t-58 -231q0 -161 66 -241.5t177 -80.5q95 0 172 55z" />
<glyph unicode="&#xc8;" horiz-adv-x="771" d="M720 0h-415v642q-226 0 -226 -136q0 -53 38 -88t110 -35v-58q-102 0 -155 51t-53 130q0 194 286 194h415v-58h-355v-263h305v-58h-305v-263h355v-58zM570 748l-198 61l38 51l170 -92z" />
<glyph unicode="&#xc9;" horiz-adv-x="771" d="M720 0h-415v642q-226 0 -226 -136q0 -53 38 -88t110 -35v-58q-102 0 -155 51t-53 130q0 194 286 194h415v-58h-355v-263h305v-58h-305v-263h355v-58zM627 809l-198 -61l-10 20l170 92z" />
<glyph unicode="&#xca;" horiz-adv-x="771" d="M720 0h-415v642q-226 0 -226 -136q0 -53 38 -88t110 -35v-58q-102 0 -155 51t-53 130q0 194 286 194h415v-58h-355v-263h305v-58h-305v-263h355v-58zM599 750h-38l-69 55l-69 -55h-36l80 98h52z" />
<glyph unicode="&#xcb;" horiz-adv-x="771" d="M720 0h-415v642q-226 0 -226 -136q0 -53 38 -88t110 -35v-58q-102 0 -155 51t-53 130q0 194 286 194h415v-58h-355v-263h305v-58h-305v-263h355v-58zM452 740q-18 0 -29 11.5t-11 28.5q0 16 11.5 28t28.5 12q16 0 28 -12t12 -28q0 -17 -11.5 -28.5t-28.5 -11.5zM596 740 q-17 0 -28.5 11.5t-11.5 28.5q0 16 11.5 28t28.5 12q18 0 29 -11.5t11 -28.5t-11.5 -28.5t-28.5 -11.5z" />
<glyph unicode="&#xcc;" horiz-adv-x="443" d="M365 0h-60v642q-226 0 -226 -136q0 -53 38 -88t110 -35v-58q-102 0 -155 51t-53 130q0 194 286 194h60v-700zM358 748l-198 61l38 51l170 -92z" />
<glyph unicode="&#xcd;" horiz-adv-x="477" d="M365 0h-60v642q-226 0 -226 -136q0 -53 38 -88t110 -35v-58q-102 0 -155 51t-53 130q0 194 286 194h60v-700zM441 809l-198 -61l-10 20l170 92z" />
<glyph unicode="&#xce;" horiz-adv-x="444" d="M365 0h-60v642q-226 0 -226 -136q0 -53 38 -88t110 -35v-58q-102 0 -155 51t-53 130q0 194 286 194h60v-700zM412 750h-38l-69 55l-69 -55h-36l80 98h52z" />
<glyph unicode="&#xcf;" horiz-adv-x="469" d="M365 0h-60v642q-226 0 -226 -136q0 -53 38 -88t110 -35v-58q-102 0 -155 51t-53 130q0 194 286 194h60v-700zM263 740q-18 0 -29 11.5t-11 28.5q0 16 11.5 28t28.5 12q16 0 28 -12t12 -28q0 -17 -11.5 -28.5t-28.5 -11.5zM407 740q-17 0 -28.5 11.5t-11.5 28.5 q0 16 11.5 28t28.5 12q18 0 29 -11.5t11 -28.5t-11.5 -28.5t-28.5 -11.5z" />
<glyph unicode="&#xd0;" horiz-adv-x="849" d="M486 0h-181v325h-78q-102 0 -155 51t-53 130q0 194 286 194h181q143 0 230.5 -88.5t87.5 -261.5t-87.5 -261.5t-230.5 -88.5zM365 58h121q116 0 187 74t71 218t-71 218t-187 74h-121v-259h195v-58h-195v-267zM305 383v259q-226 0 -226 -136q0 -53 38 -88t110 -35h78z" />
<glyph unicode="&#xd1;" horiz-adv-x="871" d="M796 0h-40l-391 568v-568h-60v642q-226 0 -226 -136q0 -53 38 -88t110 -35v-58q-102 0 -155 51t-53 130q0 194 286 194h40l391 -568v568h60v-700zM646 826l27 -7q-11 -42 -26.5 -58.5t-40.5 -16.5q-15 0 -52 16.5t-50 16.5q-14 0 -22.5 -8.5t-17.5 -31.5l-27 7 q11 42 26.5 58.5t40.5 16.5q15 0 52 -16.5t50 -16.5q14 0 22.5 8.5t17.5 31.5z" />
<glyph unicode="&#xd2;" d="M335 724q131 0 210.5 -94.5t79.5 -279.5t-79.5 -279.5t-210.5 -94.5t-210.5 94.5t-79.5 279.5t79.5 279.5t210.5 94.5zM335 34q104 0 167 80t63 236t-63 236t-167 80t-167 -80t-63 -236t63 -236t167 -80zM429 748l-198 61l38 51l170 -92z" />
<glyph unicode="&#xd3;" d="M335 724q131 0 210.5 -94.5t79.5 -279.5t-79.5 -279.5t-210.5 -94.5t-210.5 94.5t-79.5 279.5t79.5 279.5t210.5 94.5zM335 34q104 0 167 80t63 236t-63 236t-167 80t-167 -80t-63 -236t63 -236t167 -80zM439 809l-198 -61l-10 20l170 92z" />
<glyph unicode="&#xd4;" d="M335 724q131 0 210.5 -94.5t79.5 -279.5t-79.5 -279.5t-210.5 -94.5t-210.5 94.5t-79.5 279.5t79.5 279.5t210.5 94.5zM335 34q104 0 167 80t63 236t-63 236t-167 80t-167 -80t-63 -236t63 -236t167 -80zM411 750h-38l-69 55l-69 -55h-36l80 98h52z" />
<glyph unicode="&#xd5;" d="M335 724q131 0 210.5 -94.5t79.5 -279.5t-79.5 -279.5t-210.5 -94.5t-210.5 94.5t-79.5 279.5t79.5 279.5t210.5 94.5zM335 34q104 0 167 80t63 236t-63 236t-167 80t-167 -80t-63 -236t63 -236t167 -80zM426 826l27 -7q-11 -42 -26.5 -58.5t-40.5 -16.5q-15 0 -52 16.5 t-50 16.5q-14 0 -22.5 -8.5t-17.5 -31.5l-27 7q11 42 26.5 58.5t40.5 16.5q15 0 52 -16.5t50 -16.5q14 0 22.5 8.5t17.5 31.5z" />
<glyph unicode="&#xd6;" d="M335 724q131 0 210.5 -94.5t79.5 -279.5t-79.5 -279.5t-210.5 -94.5t-210.5 94.5t-79.5 279.5t79.5 279.5t210.5 94.5zM335 34q104 0 167 80t63 236t-63 236t-167 80t-167 -80t-63 -236t63 -236t167 -80zM263 740q-18 0 -29 11.5t-11 28.5q0 16 11.5 28t28.5 12 q16 0 28 -12t12 -28q0 -17 -11.5 -28.5t-28.5 -11.5zM407 740q-17 0 -28.5 11.5t-11.5 28.5q0 16 11.5 28t28.5 12q18 0 29 -11.5t11 -28.5t-11.5 -28.5t-28.5 -11.5z" />
<glyph unicode="&#xd7;" horiz-adv-x="637" d="M494 135l-177 176l-175 -175l-38 38l175 175l-175 176l38 38l175 -176l177 177l38 -38l-177 -177l177 -176z" />
<glyph unicode="&#xd8;" horiz-adv-x="660" d="M64 -14l-46 39l73 88q-51 94 -51 237q0 185 79.5 279.5t210.5 94.5q126 0 202 -86l64 76l46 -39l-74 -88q52 -93 52 -237q0 -185 -79.5 -279.5t-210.5 -94.5q-126 0 -203 86zM330 34q104 0 167 80t63 236t-63 236t-167 80t-167 -80t-63 -236t63 -236t167 -80z" />
<glyph unicode="&#xd9;" horiz-adv-x="878" d="M750 233v467h60v-467q0 -122 -73.5 -189.5t-178.5 -67.5t-178.5 67.5t-73.5 189.5v409q-226 0 -226 -136q0 -53 38 -88t110 -35v-58q-102 0 -155 51t-53 130q0 194 286 194h60v-467q0 -95 56 -147t136 -52t136 52t56 147zM590 748l-198 61l38 51l170 -92z" />
<glyph unicode="&#xda;" horiz-adv-x="878" d="M750 233v467h60v-467q0 -122 -73.5 -189.5t-178.5 -67.5t-178.5 67.5t-73.5 189.5v409q-226 0 -226 -136q0 -53 38 -88t110 -35v-58q-102 0 -155 51t-53 130q0 194 286 194h60v-467q0 -95 56 -147t136 -52t136 52t56 147zM683 809l-198 -61l-10 20l170 92z" />
<glyph unicode="&#xdb;" horiz-adv-x="878" d="M750 233v467h60v-467q0 -122 -73.5 -189.5t-178.5 -67.5t-178.5 67.5t-73.5 189.5v409q-226 0 -226 -136q0 -53 38 -88t110 -35v-58q-102 0 -155 51t-53 130q0 194 286 194h60v-467q0 -95 56 -147t136 -52t136 52t56 147zM636 750h-38l-69 55l-69 -55h-36l80 98h52z" />
<glyph unicode="&#xdc;" horiz-adv-x="878" d="M750 233v467h60v-467q0 -122 -73.5 -189.5t-178.5 -67.5t-178.5 67.5t-73.5 189.5v409q-226 0 -226 -136q0 -53 38 -88t110 -35v-58q-102 0 -155 51t-53 130q0 194 286 194h60v-467q0 -95 56 -147t136 -52t136 52t56 147zM488 740q-18 0 -29 11.5t-11 28.5q0 16 11.5 28 t28.5 12q16 0 28 -12t12 -28q0 -17 -11.5 -28.5t-28.5 -11.5zM632 740q-17 0 -28.5 11.5t-11.5 28.5q0 16 11.5 28t28.5 12q18 0 29 -11.5t11 -28.5t-11.5 -28.5t-28.5 -11.5z" />
<glyph unicode="&#xdd;" horiz-adv-x="788" d="M537 0h-60v244l-218 396q-180 -12 -180 -134q0 -53 38 -88t110 -35v-58q-102 0 -155 51t-53 130q0 88 68 141t198 53h7l215 -390l215 390h66l-251 -456v-244zM611 809l-198 -61l-10 20l170 92z" />
<glyph unicode="&#xde;" horiz-adv-x="552" d="M300 120h-165v-120h-60v700h60v-120h165q100 0 165 -58.5t65 -172.5t-64 -171.5t-166 -57.5zM135 178h165q75 0 122.5 43t47.5 128t-48 129t-122 44h-165v-344z" />
<glyph unicode="&#xdf;" horiz-adv-x="574" d="M306 0h-37v60h37q73 0 118 40.5t45 116.5q0 134 -150 134h-50v59h33q57 0 89 31.5t32 88.5q0 67 -40 100.5t-99 33.5q-70 0 -109.5 -51t-39.5 -153v-460h-60v460q0 131 56 197.5t153 66.5q87 0 143 -51t56 -143q0 -100 -69 -142q115 -37 115 -172q0 -103 -62 -159.5 t-161 -56.5z" />
<glyph unicode="&#xe0;" horiz-adv-x="614" d="M614 0h-64l-65 161h-356l-65 -161h-64l287 700h40zM461 219l-113 280l-41 118l-41 -118l-114 -280h309zM433 748l-198 61l38 51l170 -92z" />
<glyph unicode="&#xe1;" horiz-adv-x="614" d="M614 0h-64l-65 161h-356l-65 -161h-64l287 700h40zM461 219l-113 280l-41 118l-41 -118l-114 -280h309zM443 809l-198 -61l-10 20l170 92z" />
<glyph unicode="&#xe2;" horiz-adv-x="614" d="M614 0h-64l-65 161h-356l-65 -161h-64l287 700h40zM461 219l-113 280l-41 118l-41 -118l-114 -280h309zM383 750h-38l-69 55l-69 -55h-36l80 98h52z" />
<glyph unicode="&#xe3;" horiz-adv-x="614" d="M614 0h-64l-65 161h-356l-65 -161h-64l287 700h40zM461 219l-113 280l-41 118l-41 -118l-114 -280h309zM398 826l27 -7q-11 -42 -26.5 -58.5t-40.5 -16.5q-15 0 -52 16.5t-50 16.5q-14 0 -22.5 -8.5t-17.5 -31.5l-27 7q11 42 26.5 58.5t40.5 16.5q15 0 52 -16.5t50 -16.5 q14 0 22.5 8.5t17.5 31.5z" />
<glyph unicode="&#xe4;" horiz-adv-x="614" d="M614 0h-64l-65 161h-356l-65 -161h-64l287 700h40zM461 219l-113 280l-41 118l-41 -118l-114 -280h309zM259 740q-18 0 -29 11.5t-11 28.5q0 16 11.5 28t28.5 12q16 0 28 -12t12 -28q0 -17 -11.5 -28.5t-28.5 -11.5zM403 740q-17 0 -28.5 11.5t-11.5 28.5q0 16 11.5 28 t28.5 12q18 0 29 -11.5t11 -28.5t-11.5 -28.5t-28.5 -11.5z" />
<glyph unicode="&#xe5;" horiz-adv-x="614" d="M614 0h-64l-65 161h-356l-65 -161h-64l282 689q-25 8 -39.5 28t-14.5 48q0 34 22.5 56.5t56.5 22.5t56.5 -22.5t22.5 -56.5q0 -27 -15 -47.5t-40 -28.5zM461 219l-113 280l-41 118l-41 -118l-114 -280h309zM347 765q0 17 -11.5 28.5t-28.5 11.5t-28.5 -11.5t-11.5 -28.5 t11.5 -28.5t28.5 -11.5t28.5 11.5t11.5 28.5z" />
<glyph unicode="&#xe6;" horiz-adv-x="804" d="M753 0h-355v161h-269l-65 -161h-64l287 700h466v-58h-295v-263h245v-58h-245v-263h295v-58zM398 219v423h-75l-171 -423h246z" />
<glyph unicode="&#xe7;" horiz-adv-x="600" d="M520 89l36 -48q-92 -65 -209 -65q-5 0 -13.5 0.5t-12.5 0.5l-8 -29l10 -4q50 -20 50 -69q0 -33 -22 -51t-56 -18q-28 0 -58 24l19 36q1 -1 8 -5t13 -6.5t14 -2.5q13 0 21 6.5t8 17.5q0 5 -2 9.5t-7.5 8t-9 5.5t-12 5.5t-11.5 4.5l-11 5l22 67q-113 18 -178.5 112.5 t-65.5 262.5q0 181 75 274.5t197 93.5q107 0 175.5 -75.5t68.5 -218.5h-60q0 115 -52 175.5t-132 60.5q-96 0 -154 -79t-58 -231q0 -161 66 -241.5t177 -80.5q95 0 172 55z" />
<glyph unicode="&#xe8;" horiz-adv-x="541" d="M490 0h-415v700h415v-58h-355v-263h305v-58h-305v-263h355v-58zM364 748l-198 61l38 51l170 -92z" />
<glyph unicode="&#xe9;" horiz-adv-x="541" d="M490 0h-415v700h415v-58h-355v-263h305v-58h-305v-263h355v-58zM397 809l-198 -61l-10 20l170 92z" />
<glyph unicode="&#xea;" horiz-adv-x="541" d="M490 0h-415v700h415v-58h-355v-263h305v-58h-305v-263h355v-58zM346 750h-38l-69 55l-69 -55h-36l80 98h52z" />
<glyph unicode="&#xeb;" horiz-adv-x="541" d="M490 0h-415v700h415v-58h-355v-263h305v-58h-305v-263h355v-58zM212 740q-18 0 -29 11.5t-11 28.5q0 16 11.5 28t28.5 12q16 0 28 -12t12 -28q0 -17 -11.5 -28.5t-28.5 -11.5zM356 740q-17 0 -28.5 11.5t-11.5 28.5q0 16 11.5 28t28.5 12q18 0 29 -11.5t11 -28.5 t-11.5 -28.5t-28.5 -11.5z" />
<glyph unicode="&#xec;" horiz-adv-x="285" d="M173 0h-60v700h60v-700zM237 748l-198 61l38 51l170 -92z" />
<glyph unicode="&#xed;" horiz-adv-x="285" d="M173 0h-60v700h60v-700zM247 809l-198 -61l-10 20l170 92z" />
<glyph unicode="&#xee;" horiz-adv-x="220" d="M140 0h-60v700h60v-700zM186 750h-38l-69 55l-69 -55h-36l80 98h52z" />
<glyph unicode="&#xef;" horiz-adv-x="268" d="M164 0h-60v700h60v-700zM62 740q-18 0 -29 11.5t-11 28.5q0 16 11.5 28t28.5 12q16 0 28 -12t12 -28q0 -17 -11.5 -28.5t-28.5 -11.5zM206 740q-17 0 -28.5 11.5t-11.5 28.5q0 16 11.5 28t28.5 12q18 0 29 -11.5t11 -28.5t-11.5 -28.5t-28.5 -11.5z" />
<glyph unicode="&#xf0;" horiz-adv-x="671" d="M308 0h-181v325h-108v58h108v317h181q143 0 230.5 -88.5t87.5 -261.5t-87.5 -261.5t-230.5 -88.5zM187 58h121q116 0 187 74t71 218t-71 218t-187 74h-121v-259h195v-58h-195v-267z" />
<glyph unicode="&#xf1;" horiz-adv-x="641" d="M566 0h-40l-391 568v-568h-60v700h40l391 -568v568h60v-700zM411 826l27 -7q-11 -42 -26.5 -58.5t-40.5 -16.5q-15 0 -52 16.5t-50 16.5q-14 0 -22.5 -8.5t-17.5 -31.5l-27 7q11 42 26.5 58.5t40.5 16.5q15 0 52 -16.5t50 -16.5q14 0 22.5 8.5t17.5 31.5z" />
<glyph unicode="&#xf2;" d="M335 724q131 0 210.5 -94.5t79.5 -279.5t-79.5 -279.5t-210.5 -94.5t-210.5 94.5t-79.5 279.5t79.5 279.5t210.5 94.5zM335 34q104 0 167 80t63 236t-63 236t-167 80t-167 -80t-63 -236t63 -236t167 -80zM429 748l-198 61l38 51l170 -92z" />
<glyph unicode="&#xf3;" d="M335 724q131 0 210.5 -94.5t79.5 -279.5t-79.5 -279.5t-210.5 -94.5t-210.5 94.5t-79.5 279.5t79.5 279.5t210.5 94.5zM335 34q104 0 167 80t63 236t-63 236t-167 80t-167 -80t-63 -236t63 -236t167 -80zM439 809l-198 -61l-10 20l170 92z" />
<glyph unicode="&#xf4;" d="M335 724q131 0 210.5 -94.5t79.5 -279.5t-79.5 -279.5t-210.5 -94.5t-210.5 94.5t-79.5 279.5t79.5 279.5t210.5 94.5zM335 34q104 0 167 80t63 236t-63 236t-167 80t-167 -80t-63 -236t63 -236t167 -80zM411 750h-38l-69 55l-69 -55h-36l80 98h52z" />
<glyph unicode="&#xf5;" d="M335 724q131 0 210.5 -94.5t79.5 -279.5t-79.5 -279.5t-210.5 -94.5t-210.5 94.5t-79.5 279.5t79.5 279.5t210.5 94.5zM335 34q104 0 167 80t63 236t-63 236t-167 80t-167 -80t-63 -236t63 -236t167 -80zM426 826l27 -7q-11 -42 -26.5 -58.5t-40.5 -16.5q-15 0 -52 16.5 t-50 16.5q-14 0 -22.5 -8.5t-17.5 -31.5l-27 7q11 42 26.5 58.5t40.5 16.5q15 0 52 -16.5t50 -16.5q14 0 22.5 8.5t17.5 31.5z" />
<glyph unicode="&#xf6;" d="M335 724q131 0 210.5 -94.5t79.5 -279.5t-79.5 -279.5t-210.5 -94.5t-210.5 94.5t-79.5 279.5t79.5 279.5t210.5 94.5zM335 34q104 0 167 80t63 236t-63 236t-167 80t-167 -80t-63 -236t63 -236t167 -80zM263 740q-18 0 -29 11.5t-11 28.5q0 16 11.5 28t28.5 12 q16 0 28 -12t12 -28q0 -17 -11.5 -28.5t-28.5 -11.5zM407 740q-17 0 -28.5 11.5t-11.5 28.5q0 16 11.5 28t28.5 12q18 0 29 -11.5t11 -28.5t-11.5 -28.5t-28.5 -11.5z" />
<glyph unicode="&#xf8;" horiz-adv-x="660" d="M64 -14l-46 39l73 88q-51 94 -51 237q0 185 79.5 279.5t210.5 94.5q126 0 202 -86l64 76l46 -39l-74 -88q52 -93 52 -237q0 -185 -79.5 -279.5t-210.5 -94.5q-126 0 -203 86zM330 34q104 0 167 80t63 236t-63 236t-167 80t-167 -80t-63 -236t63 -236t167 -80z" />
<glyph unicode="&#xf9;" horiz-adv-x="642" d="M513 233v467h60v-467q0 -122 -73.5 -189.5t-178.5 -67.5t-178.5 67.5t-73.5 189.5v467h60v-467q0 -95 56 -147t136 -52t136 52t56 147zM415 748l-198 61l38 51l170 -92z" />
<glyph unicode="&#xfa;" horiz-adv-x="642" d="M513 233v467h60v-467q0 -122 -73.5 -189.5t-178.5 -67.5t-178.5 67.5t-73.5 189.5v467h60v-467q0 -95 56 -147t136 -52t136 52t56 147zM425 809l-198 -61l-10 20l170 92z" />
<glyph unicode="&#xfb;" horiz-adv-x="642" d="M513 233v467h60v-467q0 -122 -73.5 -189.5t-178.5 -67.5t-178.5 67.5t-73.5 189.5v467h60v-467q0 -95 56 -147t136 -52t136 52t56 147zM397 750h-38l-69 55l-69 -55h-36l80 98h52z" />
<glyph unicode="&#xfc;" horiz-adv-x="642" d="M513 233v467h60v-467q0 -122 -73.5 -189.5t-178.5 -67.5t-178.5 67.5t-73.5 189.5v467h60v-467q0 -95 56 -147t136 -52t136 52t56 147zM249 740q-18 0 -29 11.5t-11 28.5q0 16 11.5 28t28.5 12q16 0 28 -12t12 -28q0 -17 -11.5 -28.5t-28.5 -11.5zM393 740 q-17 0 -28.5 11.5t-11.5 28.5q0 16 11.5 28t28.5 12q18 0 29 -11.5t11 -28.5t-11.5 -28.5t-28.5 -11.5z" />
<glyph unicode="&#xfd;" horiz-adv-x="562" d="M311 0h-60v244l-251 456h66l215 -390l215 390h66l-251 -456v-244zM385 809l-198 -61l-10 20l170 92z" />
<glyph unicode="&#xfe;" horiz-adv-x="552" d="M300 120h-165v-120h-60v700h60v-120h165q100 0 165 -58.5t65 -172.5t-64 -171.5t-166 -57.5zM135 178h165q75 0 122.5 43t47.5 128t-48 129t-122 44h-165v-344z" />
<glyph unicode="&#xff;" horiz-adv-x="562" d="M311 0h-60v244l-251 456h66l215 -390l215 390h66l-251 -456v-244zM209 740q-18 0 -29 11.5t-11 28.5q0 16 11.5 28t28.5 12q16 0 28 -12t12 -28q0 -17 -11.5 -28.5t-28.5 -11.5zM353 740q-17 0 -28.5 11.5t-11.5 28.5q0 16 11.5 28t28.5 12q18 0 29 -11.5t11 -28.5 t-11.5 -28.5t-28.5 -11.5z" />
<glyph unicode="&#x152;" horiz-adv-x="890" d="M840 0h-365v90q-59 -114 -179 -114q-110 0 -180.5 95t-70.5 279t70.5 279t180.5 95q120 0 179 -114v90h365v-58h-305v-263h255v-58h-255v-263h305v-58zM293 34q86 0 134 79t48 236t-48 237t-131 80q-84 0 -137.5 -80t-53.5 -235t53.5 -236t134.5 -81z" />
<glyph unicode="&#x153;" horiz-adv-x="890" d="M840 0h-365v90q-59 -114 -179 -114q-110 0 -180.5 95t-70.5 279t70.5 279t180.5 95q120 0 179 -114v90h365v-58h-305v-263h255v-58h-255v-263h305v-58zM293 34q86 0 134 79t48 236t-48 237t-131 80q-84 0 -137.5 -80t-53.5 -235t53.5 -236t134.5 -81z" />
<glyph unicode="&#x178;" horiz-adv-x="788" d="M537 0h-60v244l-218 396q-180 -12 -180 -134q0 -53 38 -88t110 -35v-58q-102 0 -155 51t-53 130q0 88 68 141t198 53h7l215 -390l215 390h66l-251 -456v-244zM435 740q-18 0 -29 11.5t-11 28.5q0 16 11.5 28t28.5 12q16 0 28 -12t12 -28q0 -17 -11.5 -28.5t-28.5 -11.5z M579 740q-17 0 -28.5 11.5t-11.5 28.5q0 16 11.5 28t28.5 12q18 0 29 -11.5t11 -28.5t-11.5 -28.5t-28.5 -11.5z" />
<glyph unicode="&#x2c6;" horiz-adv-x="232" d="M222 750h-38l-69 55l-69 -55h-36l80 98h52z" />
<glyph unicode="&#x2dc;" horiz-adv-x="378" d="M278 826l27 -7q-11 -42 -26.5 -58.5t-40.5 -16.5q-15 0 -52 16.5t-50 16.5q-14 0 -22.5 -8.5t-17.5 -31.5l-27 7q11 42 26.5 58.5t40.5 16.5q15 0 52 -16.5t50 -16.5q14 0 22.5 8.5t17.5 31.5z" />
<glyph unicode="&#x2000;" horiz-adv-x="430" />
<glyph unicode="&#x2001;" horiz-adv-x="860" />
<glyph unicode="&#x2002;" horiz-adv-x="430" />
<glyph unicode="&#x2003;" horiz-adv-x="860" />
<glyph unicode="&#x2004;" horiz-adv-x="286" />
<glyph unicode="&#x2005;" horiz-adv-x="215" />
<glyph unicode="&#x2006;" horiz-adv-x="143" />
<glyph unicode="&#x2007;" horiz-adv-x="143" />
<glyph unicode="&#x2008;" horiz-adv-x="107" />
<glyph unicode="&#x2009;" horiz-adv-x="172" />
<glyph unicode="&#x200a;" horiz-adv-x="47" />
<glyph unicode="&#x2010;" horiz-adv-x="401" d="M326 321h-251v58h251v-58z" />
<glyph unicode="&#x2011;" horiz-adv-x="401" d="M326 321h-251v58h251v-58z" />
<glyph unicode="&#x2012;" horiz-adv-x="401" d="M326 321h-251v58h251v-58z" />
<glyph unicode="&#x2013;" horiz-adv-x="601" d="M526 321h-451v58h451v-58z" />
<glyph unicode="&#x2014;" horiz-adv-x="701" d="M626 321h-551v58h551v-58z" />
<glyph unicode="&#x2018;" horiz-adv-x="212" d="M127 720l37 -32q-40 -38 -58 -72q26 -1 43.5 -18.5t17.5 -42.5t-18 -43.5t-43 -18.5q-26 0 -43.5 18t-17.5 44q0 90 82 165z" />
<glyph unicode="&#x2019;" horiz-adv-x="212" d="M85 493l-37 32q40 38 58 72q-26 1 -43.5 18.5t-17.5 42.5t18 43.5t43 18.5q26 0 43.5 -18t17.5 -44q0 -90 -82 -165z" />
<glyph unicode="&#x201a;" horiz-adv-x="212" d="M85 -125l-37 32q40 38 58 72q-26 1 -43.5 18.5t-17.5 42.5t18 43.5t43 18.5q26 0 43.5 -18t17.5 -44q0 -90 -82 -165z" />
<glyph unicode="&#x201c;" horiz-adv-x="372" d="M127 720l37 -32q-40 -38 -58 -72q26 -1 43.5 -18.5t17.5 -42.5t-18 -43.5t-43 -18.5q-26 0 -43.5 18t-17.5 44q0 90 82 165zM287 720l37 -32q-40 -38 -58 -72q26 -1 43.5 -18.5t17.5 -42.5t-18 -43.5t-43 -18.5q-26 0 -43.5 18t-17.5 44q0 90 82 165z" />
<glyph unicode="&#x201d;" horiz-adv-x="372" d="M245 493l-37 32q40 38 58 72q-26 1 -43.5 18.5t-17.5 42.5t18 43.5t43 18.5q26 0 43.5 -18t17.5 -44q0 -90 -82 -165zM85 493l-37 32q40 38 58 72q-26 1 -43.5 18.5t-17.5 42.5t18 43.5t43 18.5q26 0 43.5 -18t17.5 -44q0 -90 -82 -165z" />
<glyph unicode="&#x201e;" horiz-adv-x="372" d="M245 -125l-37 32q40 38 58 72q-26 1 -43.5 18.5t-17.5 42.5t18 43.5t43 18.5q26 0 43.5 -18t17.5 -44q0 -90 -82 -165zM85 -125l-37 32q40 38 58 72q-26 1 -43.5 18.5t-17.5 42.5t18 43.5t43 18.5q26 0 43.5 -18t17.5 -44q0 -90 -82 -165z" />
<glyph unicode="&#x2022;" horiz-adv-x="354" d="M177 248q-42 0 -72 30.5t-30 71.5t30 71.5t72 30.5t72 -30t30 -72t-30 -72t-72 -30z" />
<glyph unicode="&#x2026;" horiz-adv-x="636" d="M106 -20q-25 0 -43 18t-18 43t18 43t43 18q26 0 43.5 -18t17.5 -43t-18 -43t-43 -18zM318 -20q-25 0 -43 18t-18 43t18 43t43 18q26 0 43.5 -18t17.5 -43t-18 -43t-43 -18zM530 -20q-25 0 -43 18t-18 43t18 43t43 18q26 0 43.5 -18t17.5 -43t-18 -43t-43 -18z" />
<glyph unicode="&#x202f;" horiz-adv-x="172" />
<glyph unicode="&#x2039;" horiz-adv-x="350" d="M305 98h-71l-189 252l189 252h71l-189 -252z" />
<glyph unicode="&#x203a;" horiz-adv-x="350" d="M116 98h-71l189 252l-189 252h71l189 -252z" />
<glyph unicode="&#x205f;" horiz-adv-x="215" />
<glyph unicode="&#x20ac;" horiz-adv-x="676" d="M625 89l36 -48q-92 -65 -209 -65q-118 0 -196 69.5t-99 209.5h-112v50h106q-1 16 -1 51q0 33 1 49h-106v50h112q21 134 99 201.5t196 67.5q117 0 209 -65l-36 -48q-77 55 -172 55q-92 0 -153.5 -52.5t-81.5 -158.5h278v-50h-284q-2 -16 -2 -49q0 -35 2 -51h284v-50h-278 q19 -111 81 -166t154 -55q95 0 172 55z" />
<glyph unicode="&#x2122;" horiz-adv-x="768" d="M723 278h-44v319l-136 -213h-28l-136 212v-318h-42v422h30l162 -259l164 259h30v-422zM179 278h-44v379h-124v43h292v-43h-124v-379z" />
<glyph unicode="&#x25fc;" horiz-adv-x="700" d="M0 700h700v-700h-700v700z" />
</font>
</defs>
</svg>
