<?xml version="1.0" encoding="UTF-8" standalone="no"?>
<svg width="39px" height="40px" viewBox="0 0 39 40" version="1.1" xmlns="http://www.w3.org/2000/svg" xmlns:xlink="http://www.w3.org/1999/xlink" xmlns:sketch="http://www.bohemiancoding.com/sketch/ns">
    <!-- Generator: Sketch 3.4.4 (17249) - http://www.bohemiancoding.com/sketch -->
    <title>bluestamp icon</title>
    <desc>Created with Sketch.</desc>
    <defs></defs>
    <g id="current-design" stroke="none" stroke-width="1" fill="none" fill-rule="evenodd" sketch:type="MSPage">
        <g id="web" sketch:type="MSArtboardGroup" transform="translate(-493.000000, -1606.000000)" fill="#FFFFFF">
            <g id="bluestamp" sketch:type="MSLayerGroup" transform="translate(379.000000, 1567.000000)">
                <path d="M145.682372,65.2947042 L147.300536,65.2947042 L147.300536,69.5664847 L119.511264,69.5664847 L119.511264,65.2947042 L120.763652,65.2947042 L120.763652,58.1750701 L119.339726,58.1750701 L119.339726,53.9032896 L120.763652,53.9032896 L120.763652,45.5377194 L119.339726,45.5377194 L119.339726,41.2659389 L120.763652,41.2659389 L120.763652,39 L123.077534,39 L123.077534,41.2659389 L143.368491,41.2659389 L143.368491,39 L145.682372,39 L145.682372,41.2659389 L147.128997,41.2659389 L147.128997,45.5377194 L145.682372,45.5377194 L145.682372,53.9032896 L147.128997,53.9032896 L147.128997,58.1750701 L145.682372,58.1750701 L145.682372,65.2947042 Z M143.368491,65.2947042 L123.077534,65.2947042 L123.077534,58.1750701 L143.368491,58.1750701 L143.368491,65.2947042 Z M143.368491,53.9032896 L123.077534,53.9032896 L123.077534,45.5377194 L143.368491,45.5377194 L143.368491,53.9032896 Z M114,63.158814 L118.983744,63.158814 L118.983744,79 L114,79 L114,63.158814 Z M147.818262,63.158814 L152.802006,63.158814 L152.802006,79 L147.818262,79 L147.818262,63.158814 Z M119.517716,70.1004573 L128.239268,70.1004573 L128.239268,74.3722378 L119.517716,74.3722378 L119.517716,70.1004573 Z M138.562738,70.1004573 L147.28429,70.1004573 L147.28429,74.3722378 L138.562738,74.3722378 L138.562738,70.1004573 Z" id="bluestamp-icon" sketch:type="MSShapeGroup"></path>
            </g>
        </g>
    </g>
</svg>