<?xml version="1.0" encoding="UTF-8" standalone="no"?>
<svg width="46px" height="40px" viewBox="0 0 46 40" version="1.1" xmlns="http://www.w3.org/2000/svg" xmlns:xlink="http://www.w3.org/1999/xlink" xmlns:sketch="http://www.bohemiancoding.com/sketch/ns">
    <!-- Generator: Sketch 3.4.4 (17249) - http://www.bohemiancoding.com/sketch -->
    <title>Group</title>
    <desc>Created with Sketch.</desc>
    <defs></defs>
    <g id="current-design" stroke="none" stroke-width="1" fill="none" fill-rule="evenodd" sketch:type="MSPage">
        <g id="web" sketch:type="MSArtboardGroup" transform="translate(-222.000000, -2044.000000)" fill="#FFFFFF">
            <g id="catalan" sketch:type="MSLayerGroup" transform="translate(111.000000, 2005.000000)">
                <g id="Group" transform="translate(111.000000, 39.000000)" sketch:type="MSShapeGroup">
                    <path d="M31.0770066,5.12256988 L41.4663157,19.9600409 L39.7909179,21.133167 L29.4016089,6.29569604 L31.0770066,5.12256988 L31.0770066,5.12256988 Z" id="Rectangle-55" transform="translate(35.433962, 13.127868) rotate(-10.000000) translate(-35.433962, -13.127868) "></path>
                    <path d="M25.9795971,5.12256988 L15.5902881,19.9600409 L17.2656859,21.133167 L27.6549949,6.29569604 L25.9795971,5.12256988 L25.9795971,5.12256988 Z" id="Rectangle-55-Copy" transform="translate(21.622642, 13.127868) rotate(-350.000000) translate(-21.622642, -13.127868) "></path>
                    <circle id="Oval-24" cx="28.9056604" cy="4.52830189" r="4.52830189"></circle>
                    <circle id="Oval-24-Copy-2" cx="16.5283019" cy="19.5283019" r="4.52830189"></circle>
                    <circle id="Oval-24-Copy" cx="40.7169811" cy="19.6226415" r="4.52830189"></circle>
                    <path d="M18.9738583,20.0590557 L29.3631673,34.8965267 L27.6877695,36.0696529 L17.2984605,21.2321819 L18.9738583,20.0590557 L18.9738583,20.0590557 Z" id="Rectangle-55-Copy-2" transform="translate(23.330814, 28.064354) rotate(-10.000000) translate(-23.330814, -28.064354) "></path>
                    <path d="M13.6877695,20.0590557 L3.29846051,34.8965267 L4.9738583,36.0696529 L15.3631673,21.2321819 L13.6877695,20.0590557 L13.6877695,20.0590557 Z" id="Rectangle-55-Copy-3" transform="translate(9.330814, 28.064354) rotate(-350.000000) translate(-9.330814, -28.064354) "></path>
                    <circle id="Oval-24-Copy-3" cx="4.52830189" cy="34.6614689" r="4.52830189"></circle>
                    <circle id="Oval-24-Copy-4" cx="28.5283019" cy="34.6614689" r="4.52830189"></circle>
                </g>
            </g>
        </g>
    </g>
</svg>