<?xml version="1.0" encoding="UTF-8" standalone="no"?>
<svg width="33px" height="40px" viewBox="0 0 33 40" version="1.1" xmlns="http://www.w3.org/2000/svg" xmlns:xlink="http://www.w3.org/1999/xlink" xmlns:sketch="http://www.bohemiancoding.com/sketch/ns">
    <!-- Generator: Sketch 3.4.4 (17249) - http://www.bohemiancoding.com/sketch -->
    <title>govo icon</title>
    <desc>Created with Sketch.</desc>
    <defs></defs>
    <g id="current-design" stroke="none" stroke-width="1" fill="none" fill-rule="evenodd" sketch:type="MSPage">
        <g id="web" sketch:type="MSArtboardGroup" transform="translate(-231.000000, -1825.000000)" fill="#FFFFFF">
            <g id="govo" sketch:type="MSLayerGroup" transform="translate(110.000000, 1786.000000)">
                <g id="govo-icon" transform="translate(121.000000, 39.000000)">
                    <path d="M2.5,4.00002553 L2.5,4.00002553 L2.5,35.9999745 C2.5,36.8257398 3.17310484,37.5 3.99700023,37.5 L29.0029998,37.5 C29.8244793,37.5 30.5,36.8245253 30.5,35.9976497 L30.5,10.7748756 L31.2469874,12.5572748 L20.2914873,1.78239919 L22.0444999,2.5 L3.99209263,2.5 C3.16802982,2.5 2.5,3.169589 2.5,4.00002553 L2.5,4.00002553 Z M0,4.00002553 C0,1.79087243 1.78532089,0 3.99209263,0 L22.0444999,0 L33,10.7748756 L33,35.9976497 C33,38.2080867 31.2023415,40 29.0029998,40 L3.99700023,40 C1.78951796,40 0,38.2035752 0,35.9999745 L0,4.00002553 L0,4.00002553 Z" id="Shape" sketch:type="MSShapeGroup"></path>
                    <path d="M19.75,2 L19.75,11 L19.75,12.25 L21,12.25 L31.3565035,12.25 L31.3565035,9.75 L21,9.75 L22.25,11 L22.25,2 L19.75,2 L19.75,2 Z" id="Shape" sketch:type="MSShapeGroup"></path>
                    <text id="?" sketch:type="MSTextLayer" font-family="Montserrat" font-size="22" font-weight="bold" sketch:alignment="middle">
                        <tspan x="11.308" y="30">?</tspan>
                    </text>
                </g>
            </g>
        </g>
    </g>
</svg>