<?xml version="1.0" encoding="UTF-8" standalone="no"?>
<svg width="59px" height="40px" viewBox="0 0 59 40" version="1.1" xmlns="http://www.w3.org/2000/svg" xmlns:xlink="http://www.w3.org/1999/xlink" xmlns:sketch="http://www.bohemiancoding.com/sketch/ns">
    <!-- Generator: Sketch 3.4.4 (17249) - http://www.bohemiancoding.com/sketch -->
    <title>mezzo icon</title>
    <desc>Created with Sketch.</desc>
    <defs></defs>
    <g id="current-design" stroke="none" stroke-width="1" fill="none" fill-rule="evenodd" sketch:type="MSPage">
        <g id="web" sketch:type="MSArtboardGroup" transform="translate(-215.000000, -1606.000000)" fill="#FFFFFF">
            <g id="mezzo" sketch:type="MSLayerGroup" transform="translate(111.000000, 1567.000000)">
                <g id="mezzo-icon" transform="translate(104.000000, 39.000000)" sketch:type="MSShapeGroup">
                    <path d="M1.07982381,7.4674074 C0.90816142,7.60727362 0.831558187,7.83038839 0.875194596,8.0460785 C1.56268983,11.4260403 2.98550469,13.8008456 4.59740702,15.5015846 C4.2352376,15.3754042 3.88130722,15.2530242 3.59399908,15.1571803 C3.37332546,15.0830814 3.127739,15.14597 2.96613649,15.3155096 C2.80797124,15.48768 2.76135727,15.7364881 2.85080377,15.9513337 C5.25739993,21.7534569 5.2755116,22.6027096 8.94645669,23.0917899 C8.97262132,23.1214453 9.77474017,19.3492499 10.6727527,17.616074 C12.197698,14.6729097 14.2342854,13.6058351 15.5219769,12.6844192 C15.6599059,12.2706165 15.1666351,11.2184721 14.9239834,10.7238366 C13.2130148,7.22903052 4.14034381,1.79771425 0.932263819,0.0908493337 C0.730570987,-0.0169467128 0.479435969,0.00186155392 0.294159723,0.139652361 C0.108954555,0.278114238 0.0216859331,0.511136471 0.0670150762,0.737145805 C0.716652367,3.93445674 1.96452909,6.31363971 3.42342337,8.1299226 C2.75183056,7.8274471 2.14110783,7.56061714 1.6869453,7.37409565 C1.48449867,7.29164605 1.25053497,7.32724244 1.07982381,7.4674074 L1.07982381,7.4674074 Z" id="XMLID_254_-Copy-2"></path>
                    <path d="M57.0568222,8.1073785 C57.2284845,8.24724472 57.3050878,8.47035949 57.2614514,8.6860496 C56.5739561,12.0660114 55.1511413,14.4408167 53.5392389,16.1415557 C53.9014084,16.0153753 54.2553387,15.8929953 54.5426469,15.7971514 C54.7633205,15.7230525 55.008907,15.7859411 55.1705095,15.9554807 C55.3286747,16.1276511 55.3752887,16.3764592 55.2858422,16.5913048 C52.879246,22.393428 52.8611344,23.2426807 49.1901893,23.731761 C49.1640246,23.7614164 48.3619058,19.989221 47.4638933,18.2560452 C45.938948,15.3128808 43.9023605,14.2458062 42.6146691,13.3243903 C42.47674,12.9105876 42.9700108,11.8584432 43.2126625,11.3638077 C44.9236312,7.86900162 53.9963022,2.43768535 57.2043821,0.730820436 C57.406075,0.623024389 57.65721,0.641832656 57.8424862,0.779623463 C58.0276914,0.91808534 58.11496,1.15110757 58.0696309,1.37711691 C57.4199936,4.57442785 56.1721169,6.95361082 54.7132226,8.7698937 C55.3848154,8.4674182 55.9955381,8.20058824 56.4497007,8.01406675 C56.6521473,7.93161715 56.886111,7.96721354 57.0568222,8.1073785 L57.0568222,8.1073785 Z" id="XMLID_254_-Copy-3"></path>
                    <path d="M29.1880562,39.3203362 C30.2373298,39.3203362 31.742971,40.0593669 32.5754127,39.8242566 C37.8758153,38.3271559 41.925667,30.1248025 42.8948753,25.4037798 C42.9678928,25.0481112 42.6299587,17.3371188 37.5215907,16.3828872 C34.3252283,15.1468274 29.8624664,17.8106027 30.2659927,17.6733378 C30.1715103,17.4251308 30.1577276,15.9272262 30.1577276,15.7701574 C30.6201926,14.9004176 32.318056,14.6499344 34.224919,13.7469013 C38.009724,11.9545311 38.009724,8.99813319 38.009724,8.99813319 C38.009724,8.99813319 35.5861214,8.40174593 32.4532596,10.0907251 C30.7386962,11.0150754 30.0451275,11.6375331 29.5886017,13.3083628 C29.4850931,12.6993213 29.4872385,12.4632394 29.3233619,11.6309148 C29.1639854,10.8214456 28.9598081,10.1434062 28.9201713,9.81727404 C28.8555014,9.48666751 28.7807058,9.20329612 28.6940838,8.9915864 C28.0782763,7.48609943 26.3113846,8.21818494 26.3113846,8.9915864 C26.3113846,9.50513538 26.5986217,9.76415917 26.9171456,10.0407827 C27.317545,11.2696856 27.1278521,10.6352397 27.2357227,11.057485 C27.2560121,11.1369054 27.4478657,11.8556804 27.5894692,12.4710779 C27.7464709,13.1533947 27.8541969,13.7384664 27.867881,13.8289073 C27.8790351,13.902621 27.9943729,14.8486655 28.0249082,15.1952144 C28.0609018,15.603678 28.0860183,17.293537 28.1019187,17.7033029 C25.6726256,17.3463757 24.0272816,14.7071574 20.8739628,15.9829797 C17.2738879,17.4395742 15.6587627,21.5514387 15.6587627,24.472875 C15.6587627,28.6146906 19.8660621,37.5589034 25.5932023,39.8242566 C26.7378788,40.2770353 28.1387825,39.3203362 29.1880562,39.3203362 Z" id="Shape-Copy-3"></path>
                </g>
            </g>
        </g>
    </g>
</svg>