<?xml version="1.0" encoding="UTF-8" standalone="no"?>
<svg width="57px" height="40px" viewBox="0 0 57 40" version="1.1" xmlns="http://www.w3.org/2000/svg" xmlns:xlink="http://www.w3.org/1999/xlink" xmlns:sketch="http://www.bohemiancoding.com/sketch/ns">
    <!-- Generator: Sketch 3.4.4 (17249) - http://www.bohemiancoding.com/sketch -->
    <title>sierra logo</title>
    <desc>Created with Sketch.</desc>
    <defs></defs>
    <g id="current-design" stroke="none" stroke-width="1" fill="none" fill-rule="evenodd" sketch:type="MSPage">
        <g id="web" sketch:type="MSArtboardGroup" transform="translate(-750.000000, -1825.000000)" fill="#FFFFFF">
            <g id="sierra" sketch:type="MSLayerGroup" transform="translate(646.000000, 1786.000000)">
                <g id="sierra-logo" transform="translate(104.000000, 39.000000)" sketch:type="MSShapeGroup">
                    <path d="M16.1307625,3.47272601 L1.66110583,33.6467848 L0.00441379743,37.10154 L3.71216862,36.135871 L31.4446351,28.9130678 L33.703952,28.3246384 L32.5358229,26.3031942 L19.2730131,3.35193864 L17.5874423,0.435063024 L16.1307625,3.47272601 L16.1307625,3.47272601 Z M17.6819969,7.95492891 L28.2801004,25.9945369 L6.11824665,32.0789409 L17.6819969,7.95492891 Z" id="Shape"></path>
                    <path d="M29.5555556,36.8888889 C37.435962,36.8888889 44,32.0522293 44,25.7777778 C44,19.5033263 37.435962,14.6666667 29.5555556,14.6666667 C21.6751492,14.6666667 15.1111111,19.5033263 15.1111111,25.7777778 C15.1111111,32.0522293 21.6751492,36.8888889 29.5555556,36.8888889 L29.5555556,36.8888889 Z M29.5555556,33.3333333 C23.4447483,33.3333333 18.6666667,29.8126416 18.6666667,25.7777778 C18.6666667,21.7429139 23.4447483,18.2222222 29.5555556,18.2222222 C35.6663628,18.2222222 40.4444444,21.7429139 40.4444444,25.7777778 C40.4444444,29.8126416 35.6663628,33.3333333 29.5555556,33.3333333 L29.5555556,33.3333333 Z" id="Shape"></path>
                    <path d="M52.4712351,25.5506624 L43.2365978,35.4868759 L34.0019605,26.3128494 L42.564417,16.5781368 L52.4712351,25.5506624 Z M42.7002622,11.5851619 L41.4820788,12.8617939 L30.444408,24.4290535 L29.2658325,25.6641773 L30.4522343,26.8917854 L41.4899048,38.3128189 L42.7699051,39.6372764 L44.0481971,38.3111701 L55.6731778,26.2513592 L56.9225086,24.9552974 L55.610913,23.7222847 L43.9859325,12.7938025 L42.7002622,11.5851619 Z" id="Shape"></path>
                </g>
            </g>
        </g>
    </g>
</svg>