<?xml version="1.0" encoding="UTF-8" standalone="no"?>
<svg width="57px" height="38px" viewBox="0 0 57 38" version="1.1" xmlns="http://www.w3.org/2000/svg" xmlns:xlink="http://www.w3.org/1999/xlink" xmlns:sketch="http://www.bohemiancoding.com/sketch/ns">
    <!-- Generator: Sketch 3.4.4 (17249) - http://www.bohemiancoding.com/sketch -->
    <title>trext icon</title>
    <desc>Created with Sketch.</desc>
    <defs></defs>
    <g id="current-design" stroke="none" stroke-width="1" fill="none" fill-rule="evenodd" sketch:type="MSPage">
        <g id="web" sketch:type="MSArtboardGroup" transform="translate(-484.000000, -1831.000000)" fill="#FFFFFF">
            <g id="trext" sketch:type="MSLayerGroup" transform="translate(379.000000, 1786.000000)">
                <g id="trext-icon" transform="translate(105.000000, 45.000000)" sketch:type="MSShapeGroup">
                    <ellipse id="Oval-29-Copy-2" cx="41.0810811" cy="16.2162162" rx="4.32432432" ry="4.32432432"></ellipse>
                    <ellipse id="Oval-29-Copy" cx="28.1081081" cy="16.2162162" rx="4.32432432" ry="4.32432432"></ellipse>
                    <ellipse id="Oval-29" cx="15.1351351" cy="16.2162162" rx="4.32432432" ry="4.32432432"></ellipse>
                    <path d="M6.89315084,31.2750553 L6.89315084,28.3513514 C8.9089072,28.3513514 11.2321135,29.4793858 12.4834385,31.0676575 L15.6600912,35.0996938 C15.4778204,34.8683426 14.8005172,34.8700365 14.6138058,35.1117937 L17.7121245,31.1000346 C18.9558115,29.489686 21.2704648,28.3513514 23.302363,28.3513514 L48.9678528,28.3513514 C51.7323714,28.3513514 53.971257,26.1154532 53.971257,23.3589624 L53.971257,7.99238893 C53.971257,5.23720029 51.7334155,3 48.9746364,3 L7.99662059,3 C5.23979884,3 3,5.23761231 3,7.99238893 L3,23.3589624 C3,26.113611 5.24018091,28.3513514 8.0030486,28.3513514 L8.0030486,31.3513514 L8.0030486,31.5454373 C7.62074376,31.421731 7.23883496,31.3513514 6.89315084,31.3513514 L8.0030486,31.3513514 C7.62644062,31.3513514 7.25590842,31.3253521 6.89315084,31.2750553 L6.89315084,31.2750553 Z M8.0030486,31.5454373 L8.0030486,28.3513514 L6.89315084,28.3513514 L6.89315084,31.2750553 C2.99849826,30.7350568 0,27.3943605 0,23.3589624 L0,7.99238893 C0,3.57831441 3.58538928,0 7.99662059,0 L48.9746364,0 C53.391048,0 56.971257,3.58112389 56.971257,7.99238893 L56.971257,23.3589624 C56.971257,27.7730369 53.3884977,31.3513514 48.9678528,31.3513514 L23.302363,31.3513514 C22.2012188,31.3513514 20.7629229,32.0578586 20.0864596,32.9337556 L16.988141,36.9455147 C15.9784992,38.2528173 14.3271108,38.2554036 13.3035869,36.9562733 L10.1269342,32.924237 C9.65890247,32.3301775 8.8300489,31.8130384 8.0030486,31.5454373 L8.0030486,31.5454373 Z" id="Shape"></path>
                </g>
            </g>
        </g>
    </g>
</svg>