<?xml version="1.0" encoding="UTF-8" standalone="no"?>
<svg width="151px" height="151px" viewBox="0 0 151 151" version="1.1" xmlns="http://www.w3.org/2000/svg" xmlns:xlink="http://www.w3.org/1999/xlink" xmlns:sketch="http://www.bohemiancoding.com/sketch/ns">
    <!-- Generator: Sketch 3.4.2 (15857) - http://www.bohemiancoding.com/sketch -->
    <title>Group</title>
    <desc>Created with Sketch.</desc>
    <defs>
        <filter x="-50%" y="-50%" width="200%" height="200%" filterUnits="objectBoundingBox" id="filter-1">
            <feOffset dx="0" dy="2" in="SourceAlpha" result="shadowOffsetOuter1"></feOffset>
            <feGaussianBlur stdDeviation="2" in="shadowOffsetOuter1" result="shadowBlurOuter1"></feGaussianBlur>
            <feColorMatrix values="0 0 0 0 0   0 0 0 0 0   0 0 0 0 0  0 0 0 0.35 0" in="shadowBlurOuter1" type="matrix" result="shadowMatrixOuter1"></feColorMatrix>
            <feMerge>
                <feMergeNode in="shadowMatrixOuter1"></feMergeNode>
                <feMergeNode in="SourceGraphic"></feMergeNode>
            </feMerge>
        </filter>
        <linearGradient x1="54.2734385%" y1="100%" x2="54.2734375%" y2="0%" id="linearGradient-2">
            <stop stop-color="#D6D5D5" offset="0%"></stop>
            <stop stop-color="#BEBEBE" offset="100%"></stop>
        </linearGradient>
    </defs>
    <g id="current-design" stroke="none" stroke-width="1" fill="none" fill-rule="evenodd" sketch:type="MSPage">
        <g id="web" sketch:type="MSArtboardGroup" transform="translate(-182.000000, -968.000000)">
            <g id="Group" sketch:type="MSLayerGroup" transform="translate(188.000000, 972.000000)">
                <path d="M69.5,139 C107.88379,139 139,107.88379 139,69.5 C139,31.1162099 107.88379,0 69.5,0 C31.1162099,0 0,31.1162099 0,69.5 C0,107.88379 31.1162099,139 69.5,139 Z" id="Oval-13-Copy" stroke="#FFFFFF" stroke-width="7" fill="#00BB9A" filter="url(#filter-1)" sketch:type="MSShapeGroup"></path>
                <g transform="translate(31.000000, 37.000000)" sketch:type="MSShapeGroup">
                    <rect id="Rectangle-13-Copy" fill="#464F5A" x="1" y="2" width="75" height="62" rx="3"></rect>
                    <rect id="Rectangle-13-Copy-3" fill="#2F353C" x="0.5" y="8" width="75" height="56" rx="3"></rect>
                    <rect id="Rectangle-13-Copy-4" fill="url(#linearGradient-2)" transform="translate(38.500000, 4.000000) scale(1, -1) translate(-38.500000, -4.000000) " x="0.5" y="0" width="76" height="8" rx="3"></rect>
                    <path d="M10.9561471,20.8333333 L24.4486148,28.1666667 L10.9561471,35.5" id="Triangle-1-Copy-2" stroke="#17E459" stroke-width="4" stroke-linecap="round" stroke-linejoin="round"></path>
                    <path d="M51.5513852,20.8333333 L65.0438529,28.1666667 L51.5513852,35.5" id="Triangle-1-Copy-3" stroke="#FFFFFF" stroke-linecap="round" stroke-linejoin="round" transform="translate(58.297619, 28.166667) scale(-1, 1) translate(-58.297619, -28.166667) "></path>
                    <path d="M31.1547619,40 L45.5119047,40" id="Line-Copy" stroke="#18E459" stroke-width="4" stroke-linecap="square"></path>
                </g>
            </g>
        </g>
    </g>
</svg>