<?xml version="1.0" encoding="UTF-8" standalone="no"?>
<svg width="151px" height="151px" viewBox="0 0 151 151" version="1.1" xmlns="http://www.w3.org/2000/svg" xmlns:xlink="http://www.w3.org/1999/xlink" xmlns:sketch="http://www.bohemiancoding.com/sketch/ns">
    <!-- Generator: Sketch 3.4.2 (15857) - http://www.bohemiancoding.com/sketch -->
    <title>Oval 13 + computer + paint + bucket Copy</title>
    <desc>Created with Sketch.</desc>
    <defs>
        <filter x="-50%" y="-50%" width="200%" height="200%" filterUnits="objectBoundingBox" id="filter-1">
            <feOffset dx="0" dy="2" in="SourceAlpha" result="shadowOffsetOuter1"></feOffset>
            <feGaussianBlur stdDeviation="2" in="shadowOffsetOuter1" result="shadowBlurOuter1"></feGaussianBlur>
            <feColorMatrix values="0 0 0 0 0   0 0 0 0 0   0 0 0 0 0  0 0 0 0.35 0" in="shadowBlurOuter1" type="matrix" result="shadowMatrixOuter1"></feColorMatrix>
            <feMerge>
                <feMergeNode in="shadowMatrixOuter1"></feMergeNode>
                <feMergeNode in="SourceGraphic"></feMergeNode>
            </feMerge>
        </filter>
    </defs>
    <g id="current-design" stroke="none" stroke-width="1" fill="none" fill-rule="evenodd" sketch:type="MSPage">
        <g id="web" sketch:type="MSArtboardGroup" transform="translate(-702.000000, -968.000000)">
            <g id="Oval-13-+-computer-+-paint-+-bucket-Copy" sketch:type="MSLayerGroup" transform="translate(708.000000, 970.000000)">
                <circle id="Oval-13" stroke="#FFFFFF" stroke-width="7" fill="#3296D9" filter="url(#filter-1)" sketch:type="MSShapeGroup" cx="69.5" cy="71.5" r="69.5"></circle>
                <g id="computer-+-paint-+-bucket" transform="translate(31.000000, 0.000000)" sketch:type="MSShapeGroup">
                    <g id="computer" transform="translate(4.597015, 51.021277)">
                        <rect id="Rectangle-28" fill="#EAEAEA" x="26.578311" y="48.7757514" width="19.2463631" height="6.44208038"></rect>
                        <rect id="Rectangle-28-Copy-2" fill="#EAEAEA" x="17.4133762" y="55.2178318" width="36.6597393" height="2.76089159"></rect>
                        <rect id="Rectangle-28-Copy" fill="#BDBDBD" x="26.578311" y="48.7757514" width="19.2463631" height="1.84059439"></rect>
                        <rect id="Rectangle-26-Copy" fill="#EBEBEB" x="0" y="39.5727795" width="71.81909" height="9.40255449" rx="4"></rect>
                        <rect id="Rectangle-26" stroke="#242C3C" stroke-width="3" fill="#3B4250" x="0" y="0" width="71.81909" height="42.8991549" rx="4"></rect>
                    </g>
                    <g id="paint" transform="translate(7.470149, 33.627660)" fill="#A1D9FF">
                        <path d="M19.9331602,6.61082843 C24.1832667,11.5767143 26.5490642,19.6467357 25.487567,26.5763334 C24.4440416,33.3886083 23.2579344,37.7779455 17.897877,41.5951187 C12.5378195,45.4122918 0.340944488,46.1641188 0.340944488,52.6023881 L0.340944488,56.5444734 L64.6590683,56.5444734 C64.6590683,56.5444734 64.659071,53.9376389 64.6590683,52.1563389 C64.6590723,47.8282138 52.5571495,45.3552842 45.8731385,41.5951187 C39.1891275,37.8349532 35.9919357,33.8278555 32.5000084,26.5763334 C29.0080811,19.3248113 29.9205953,7.98143643 22.4691464,0.530343769 C22.4691462,0.530343811 19.9331609,6.61082848 19.9331602,6.61082843 Z" id="Path-46"></path>
                        <path d="M34.8732297,8.81680744 C38.4178309,8.5138286 41.9312779,11.6142445 39.7764606,13.3090081 C37.6216432,15.0037718 37.5947004,10.3602326 33.4186162,8.81680744 L34.8732297,8.81680744 Z" id="Path-47"></path>
                    </g>
                    <g id="bucket" transform="translate(0.574627, 0.000000)" stroke="#5D5E69" stroke-width="2">
                        <rect id="Rectangle-25" fill="#ACB0BD" x="3.6548658" y="5.8554764" width="28.6030463" height="32.7575554"></rect>
                        <path d="M37.6220025,16.1026262 C33.5828771,6.10543995 26.8621994,-0.606477281 22.6109487,1.11113949 C18.359698,2.82875626 18.1877365,12.3254805 22.2268619,22.3226668 L22.2268619,22.3226668" id="Oval-12"></path>
                    </g>
                </g>
            </g>
        </g>
    </g>
</svg>