<?xml version="1.0" encoding="UTF-8" standalone="no"?>
<svg width="669px" height="107px" viewBox="0 0 669 107" version="1.1" xmlns="http://www.w3.org/2000/svg" xmlns:xlink="http://www.w3.org/1999/xlink" xmlns:sketch="http://www.bohemiancoding.com/sketch/ns">
    <!-- Generator: Sketch 3.3.2 (12043) - http://www.bohemiancoding.com/sketch -->
    <title>rocket solid + Path 30</title>
    <desc>Created with Sketch.</desc>
    <defs>
        <linearGradient x1="100%" y1="100%" x2="0%" y2="100%" id="linearGradient-1">
            <stop stop-color="#E1EBEB" offset="0%"></stop>
            <stop stop-color="#E1EBEB" stop-opacity="0.75" offset="100%"></stop>
        </linearGradient>
    </defs>
    <g id="Page-1" stroke="none" stroke-width="1" fill="none" fill-rule="evenodd" sketch:type="MSPage">
        <g id="home-copy" sketch:type="MSArtboardGroup" transform="translate(-170.000000, -187.000000)">
            <g id="welcome" sketch:type="MSLayerGroup">
                <g id="claire-huang-+-Group-+-Path-30" transform="translate(170.000000, 147.000000)" sketch:type="MSShapeGroup">
                    <g id="rocket-solid-+-Path-30" transform="translate(0.000000, 22.000000)">
                        <g id="rocket-solid" transform="translate(635.182626, 47.294668) rotate(-310.000000) translate(-635.182626, -47.294668) translate(610.182626, 4.294668)" stroke="#17D8E0">
                            <ellipse id="semicolon-top" stroke-width="2" cx="24.4893418" cy="32.8066069" rx="6.07764687" ry="6.07545515"></ellipse>
                            <g id="left-fin-+-right-fin" transform="translate(0.536263, 69.974097)" stroke-width="3" stroke-linecap="round">
                                <path d="M7.06220182,0.280294673 L1.17403307,9.01949758 C0.556647495,9.93581944 0.947970058,10.6277895 2.0485104,10.5650311 L12.4566448,9.97150709" id="left-fin"></path>
                                <path d="M42.4555571,0.280294673 L36.5673884,9.01949758 C35.9500028,9.93581944 36.3413254,10.6277895 37.4418657,10.5650311 L47.8500001,9.97150709" id="right-fin" transform="translate(41.649757, 5.479470) scale(-1, 1) translate(-41.649757, -5.479470) "></path>
                            </g>
                            <g id="left-body-+-right-body" transform="translate(0.178754, 11.363824)" stroke-width="3" stroke-linecap="round">
                                <path d="M21.0146922,68.9315386 C16.1644852,68.9315386 15.6822152,67.0424493 14.3575646,65.6458517 C11.3383551,61.1400622 7.37754334,44.8815374 6.94006631,39.752595 C6.13405101,34.6873394 1.62038621,34.2622834 1.62038621,34.2622834 C0.563914557,33.9850999 0.484788763,33.3177184 1.4165285,32.7273533 C1.4165285,32.7273533 4.14031475,31.4494142 5.55399546,28.6238809 C6.94006629,24.0841017 8.79007503,9.91392887 14.8983464,3.87773876 C19.3635481,-0.534770843 23.2878729,0.149726081 23.2878729,0.149726081" id="left-body"></path>
                                <path d="M46.0542357,68.9315386 C41.2040287,68.9315386 40.7217588,67.0424493 39.3971081,65.6458517 C36.3778987,61.1400622 32.4170869,44.8815374 31.9796099,39.752595 C31.1735946,34.6873394 26.6599298,34.2622834 26.6599298,34.2622834 C25.6034581,33.9850999 25.5243323,33.3177184 26.456072,32.7273533 C26.456072,32.7273533 29.1798583,31.4494142 30.593539,28.6238809 C31.9796098,24.0841017 33.8296186,9.91392887 39.93789,3.87773876 C44.4030917,-0.534770843 48.3274164,0.149726081 48.3274164,0.149726081" id="right-body" transform="translate(36.731076, 34.521443) scale(-1, 1) translate(-36.731076, -34.521443) "></path>
                            </g>
                            <path d="M18.9420855,84.7444197 C19.1729458,85.2498782 19.806082,85.6596332 20.355309,85.6596332 L28.7442121,85.6596332 C29.2938535,85.6596332 29.90163,85.2509553 30.1073542,84.7326273 L30.1730401,84.5671296 C30.3762413,84.0551584 30.0958531,83.6401237 29.5505084,83.6401237 L19.4281753,83.6401237 C18.8811593,83.6401237 18.6243726,84.0488016 18.8557249,84.5553372 L18.9420855,84.7444197 Z" id="bottom" stroke-width="2"></path>
                            <path d="M18.0867135,9.28325097 C17.0578868,9.66827925 16.802908,9.28994391 17.5105343,8.44616666 L23.1719102,1.6955121 C23.8825219,0.84817493 25.0420056,0.85173486 25.7549709,1.6955121 L31.4590623,8.44616666 C32.1750356,9.29350384 31.9207473,9.65571391 30.8831906,9.28884507 C30.8831906,9.28884507 27.9955481,7.98711847 24.4524277,7.98711847 C20.9093074,7.98711847 18.0867135,9.28325097 18.0867135,9.28325097 Z" id="top" stroke-width="2"></path>
                            <path d="M25.0127947,52.4229837 C23.0491506,52.8392755 21.2084003,51.2264599 21.2084001,49.3058232 C21.2084,47.3851865 22.7065849,46.0609273 24.1880112,46.0609271 C25.6694375,46.0609269 27.1138566,47.0135674 27.4857491,48.401485 C27.5790451,48.7496693 28.0764763,50.0621842 27.4857491,51.8091566 C26.8950219,53.556129 25.4165293,56.9620823 22.6895473,56.7591447 C24.5840637,55.2228306 25.0127949,53.2014013 25.0127947,52.4229837 Z" id="semicolon-bottom" stroke-width="2"></path>
                        </g>
                        <path d="M0,101.791691 C0,101.791691 124.81427,69.343233 193.352378,77.2233372 C261.890485,85.1034414 303.570566,103.331906 398.603138,102.842436 C493.635709,102.352965 576.489966,71.3292852 576.489966,71.3292852 C579.602148,70.2324189 584.004139,71.2605762 586.328797,73.6325851 L601.045737,88.6492927 C603.751628,91.4103 602.941188,94.5089279 599.199557,95.5442879 C599.199557,95.5442879 503.509589,124.008832 401.998642,124.667089 C300.487695,125.325346 261.999152,104.886435 196.585246,92.8579996 C131.171339,80.8295646 0,101.791691 0,101.791691 Z" id="Path-30" fill="url(#linearGradient-1)"></path>
                    </g>
                </g>
            </g>
        </g>
    </g>
</svg>